# Blender v2.92.0 OBJ File: ''
# www.blender.org
mtllib link_13.0.mtl
o link_13.0
v 0.007813 -0.001720 -0.000167
v 0.008000 0.000000 0.000333
v 0.008000 0.000000 -0.000167
v 0.007813 -0.001720 0.000333
v 0.007813 0.001720 0.000333
v 0.007813 0.001720 -0.000167
v 0.007261 0.003359 0.000333
v 0.007261 0.003359 -0.000167
v 0.006369 0.004841 0.000333
v 0.006369 0.004841 -0.000167
v 0.005179 0.006097 0.000333
v 0.005179 0.006097 -0.000167
v 0.003747 0.007068 0.000333
v 0.003747 0.007068 -0.000167
v 0.002140 0.007708 0.000333
v 0.002140 0.007708 -0.000167
v 0.000433 0.007988 0.000333
v 0.000433 0.007988 -0.000167
v -0.001294 0.007895 0.000333
v -0.001294 0.007895 -0.000167
v -0.002961 0.007432 0.000333
v -0.002961 0.007432 -0.000167
v -0.004490 0.006622 0.000333
v -0.004490 0.006622 -0.000167
v -0.005808 0.005502 0.000333
v -0.005808 0.005502 -0.000167
v -0.006855 0.004124 0.000333
v -0.006855 0.004124 -0.000167
v -0.007581 0.002554 0.000333
v -0.007581 0.002554 -0.000167
v -0.007953 0.000865 0.000333
v -0.007953 0.000865 -0.000167
v -0.007953 -0.000865 0.000333
v -0.007953 -0.000865 -0.000167
v -0.007581 -0.002554 0.000333
v -0.007581 -0.002554 -0.000167
v -0.006855 -0.004124 0.000333
v -0.006855 -0.004124 -0.000167
v -0.005808 -0.005502 0.000333
v -0.005808 -0.005502 -0.000167
v -0.004490 -0.006622 0.000333
v -0.004490 -0.006622 -0.000167
v -0.002961 -0.007432 0.000333
v -0.002961 -0.007432 -0.000167
v -0.001294 -0.007895 0.000333
v -0.001294 -0.007895 -0.000167
v 0.000433 -0.007988 0.000333
v 0.000433 -0.007988 -0.000167
v 0.002140 -0.007708 0.000333
v 0.002140 -0.007708 -0.000167
v 0.003747 -0.007068 0.000333
v 0.003747 -0.007068 -0.000167
v 0.005179 -0.006097 0.000333
v 0.005179 -0.006097 -0.000167
v 0.006369 -0.004841 0.000333
v 0.006369 -0.004841 -0.000167
v 0.007261 -0.003359 0.000333
v 0.007261 -0.003359 -0.000167
v 0.008000 0.000000 0.000333
v 0.009300 -0.011450 0.004133
v 0.009300 -0.013450 0.004133
v 0.009800 -0.013450 0.004133
v 0.009300 0.011250 0.004133
v -0.009800 -0.011450 0.004133
v 0.009800 0.013450 0.004133
v 0.009300 0.013450 0.004133
v -0.009800 0.011250 0.004133
v -0.002298 -0.010750 0.013605
v -0.002819 -0.010750 0.014507
v -0.003000 -0.010750 0.015533
v -0.001500 -0.010750 0.012935
v -0.000521 -0.010750 0.018487
v -0.002819 -0.010750 0.016559
v -0.002298 -0.010750 0.017461
v -0.001500 -0.010750 0.018131
v 0.000521 -0.010750 0.018487
v 0.000521 -0.010750 0.012579
v -0.000521 -0.010750 0.012579
v 0.001500 -0.010750 0.018131
v 0.002298 -0.010750 0.013605
v 0.001500 -0.010750 0.012935
v 0.002298 -0.010750 0.017461
v 0.002819 -0.010750 0.016559
v 0.002819 -0.010750 0.014507
v 0.003000 -0.010750 0.015533
v 0.009800 -0.013450 -0.000167
v 0.009050 -0.013450 0.004200
v -0.009800 -0.013450 -0.000167
v 0.008867 -0.013450 0.004383
v 0.008800 -0.013450 0.004633
v 0.008800 -0.013450 0.007833
v 0.008628 -0.013450 0.010023
v 0.008115 -0.013450 0.012159
v 0.007274 -0.013450 0.014189
v 0.006126 -0.013450 0.016062
v 0.004699 -0.013450 0.017732
v 0.003029 -0.013450 0.019159
v 0.001156 -0.013450 0.020307
v -0.000874 -0.013450 0.021148
v -0.003010 -0.013450 0.021660
v -0.005200 -0.013450 0.021833
v -0.009800 -0.013450 0.018833
v -0.006800 -0.013450 0.021833
v -0.007727 -0.013450 0.021686
v -0.008563 -0.013450 0.021260
v -0.009653 -0.013450 0.019760
v -0.009227 -0.013450 0.020596
v 0.009050 -0.011450 0.004200
v 0.008867 -0.011450 0.004383
v 0.008800 -0.011450 0.004633
v -0.000521 -0.011450 0.012579
v 0.000521 -0.011450 0.012579
v 0.001500 -0.011450 0.012935
v -0.001500 -0.011450 0.012935
v -0.002298 -0.011450 0.013605
v -0.002819 -0.011450 0.014507
v -0.003000 -0.011450 0.015533
v -0.009800 -0.011450 0.018833
v -0.002819 -0.011450 0.016559
v -0.009653 -0.011450 0.019760
v -0.008563 -0.011450 0.021260
v -0.002298 -0.011450 0.017461
v -0.009227 -0.011450 0.020596
v -0.007727 -0.011450 0.021686
v -0.006800 -0.011450 0.021833
v -0.005200 -0.011450 0.021833
v -0.001500 -0.011450 0.018131
v -0.003010 -0.011450 0.021660
v -0.000521 -0.011450 0.018487
v -0.000874 -0.011450 0.021148
v 0.000521 -0.011450 0.018487
v 0.001156 -0.011450 0.020307
v 0.001500 -0.011450 0.018131
v 0.003029 -0.011450 0.019159
v 0.002298 -0.011450 0.017461
v 0.004699 -0.011450 0.017732
v 0.002819 -0.011450 0.016559
v 0.003000 -0.011450 0.015533
v 0.006126 -0.011450 0.016062
v 0.007274 -0.011450 0.014189
v 0.002819 -0.011450 0.014507
v 0.008115 -0.011450 0.012159
v 0.002298 -0.011450 0.013605
v 0.008628 -0.011450 0.010023
v 0.008800 -0.011450 0.007833
v 0.003614 0.010450 0.016707
v 0.003074 0.010450 0.017766
v -0.002234 0.010450 0.012459
v -0.001174 0.010450 0.011919
v 0.000000 0.010450 0.011733
v 0.001174 0.010450 0.011919
v 0.002234 0.010450 0.012459
v 0.003074 0.010450 0.013299
v 0.003800 0.010450 0.015533
v 0.002234 0.010450 0.018607
v 0.001174 0.010450 0.019147
v 0.000000 0.010450 0.019333
v -0.001174 0.010450 0.019147
v -0.002234 0.010450 0.018607
v -0.003074 0.010450 0.017766
v -0.003614 0.010450 0.016707
v -0.003800 0.010450 0.015533
v -0.003074 0.010450 0.013299
v -0.003614 0.010450 0.014359
v 0.003614 0.010450 0.014359
v 0.009800 0.013450 -0.000167
v 0.009050 0.013450 0.004200
v 0.008867 0.013450 0.004383
v -0.009800 0.013450 -0.000167
v 0.008800 0.013450 0.004633
v 0.008800 0.013450 0.007833
v 0.008628 0.013450 0.010023
v 0.008115 0.013450 0.012159
v 0.007274 0.013450 0.014189
v 0.006126 0.013450 0.016062
v 0.004699 0.013450 0.017732
v 0.003029 0.013450 0.019159
v 0.001156 0.013450 0.020307
v -0.000874 0.013450 0.021148
v -0.003010 0.013450 0.021660
v -0.005200 0.013450 0.021833
v -0.009800 0.013450 0.018833
v -0.006800 0.013450 0.021833
v -0.009653 0.013450 0.019760
v -0.009227 0.013450 0.020596
v -0.007727 0.013450 0.021686
v -0.008563 0.013450 0.021260
v 0.009050 0.011250 0.004200
v 0.008867 0.011250 0.004383
v 0.008800 0.011250 0.004633
v 0.003614 0.011250 0.014359
v 0.003074 0.011250 0.013299
v 0.002234 0.011250 0.012459
v 0.001174 0.011250 0.011919
v 0.003614 0.011250 0.016707
v 0.003800 0.011250 0.015533
v 0.000000 0.011250 0.011733
v -0.001174 0.011250 0.011919
v -0.002234 0.011250 0.012459
v -0.003074 0.011250 0.013299
v -0.003614 0.011250 0.014359
v -0.009800 0.011250 0.018833
v -0.003800 0.011250 0.015533
v -0.009653 0.011250 0.019760
v -0.003614 0.011250 0.016707
v -0.009227 0.011250 0.020596
v -0.003074 0.011250 0.017766
v -0.008563 0.011250 0.021260
v -0.006800 0.011250 0.021833
v -0.007727 0.011250 0.021686
v -0.005200 0.011250 0.021833
v -0.002234 0.011250 0.018607
v -0.003010 0.011250 0.021660
v -0.001174 0.011250 0.019147
v -0.000874 0.011250 0.021148
v 0.000000 0.011250 0.019333
v 0.001156 0.011250 0.020307
v 0.001174 0.011250 0.019147
v 0.003029 0.011250 0.019159
v 0.002234 0.011250 0.018607
v 0.004699 0.011250 0.017732
v 0.003074 0.011250 0.017766
v 0.006126 0.011250 0.016062
v 0.007274 0.011250 0.014189
v 0.008800 0.011250 0.007833
v 0.008628 0.011250 0.010023
v 0.008115 0.011250 0.012159
v 0.000000 0.010450 0.011733
v 0.000000 0.011250 0.011733
v 0.000000 0.011250 0.019333
v 0.008000 0.000000 -0.000167
vn -0.9941 0.1081 0.0000
vn -0.9941 -0.1081 0.0000
vn -0.9477 -0.3193 0.0000
vn -0.8569 -0.5156 0.0000
vn -0.7260 -0.6877 0.0000
vn -0.5612 -0.8277 0.0000
vn -0.3701 -0.9290 0.0000
vn -0.1618 -0.9868 0.0000
vn 0.0541 -0.9985 0.0000
vn 0.2675 -0.9635 0.0000
vn 0.4684 -0.8835 0.0000
vn 0.6474 -0.7622 0.0000
vn 0.7961 -0.6052 0.0000
vn 0.9076 -0.4199 0.0000
vn 0.9766 -0.2150 0.0000
vn 1.0000 0.0000 0.0000
vn 0.9766 0.2150 0.0000
vn 0.9076 0.4199 0.0000
vn 0.7961 0.6052 0.0000
vn 0.6474 0.7622 0.0000
vn 0.4684 0.8835 0.0000
vn 0.2675 0.9635 0.0000
vn 0.0541 0.9985 0.0000
vn -0.1618 0.9868 0.0000
vn -0.3701 0.9290 0.0000
vn -0.5612 0.8277 0.0000
vn -0.7260 0.6877 0.0000
vn -0.8569 0.5156 0.0000
vn -0.9477 0.3193 0.0000
vn 0.0000 0.0000 -1.0000
vn 0.0000 0.0000 1.0000
vn 0.0000 1.0000 -0.0000
vn 0.0000 -1.0000 0.0000
vn 0.2588 0.0000 0.9659
vn 0.7071 0.0000 0.7071
vn 0.9659 0.0000 0.2588
vn 0.9969 0.0000 0.0785
vn 0.9724 0.0000 0.2335
vn 0.9239 0.0000 0.3827
vn 0.8526 0.0000 0.5225
vn 0.7604 0.0000 0.6494
vn 0.6494 0.0000 0.7604
vn 0.5225 0.0000 0.8526
vn 0.3827 0.0000 0.9239
vn 0.2334 0.0000 0.9724
vn 0.0785 0.0000 0.9969
vn -0.1564 0.0000 0.9877
vn -0.4541 0.0000 0.8910
vn -0.7071 0.0000 0.7071
vn -0.8910 0.0000 0.4540
vn -0.9877 0.0000 0.1564
vn 0.9848 0.0000 -0.1736
vn 0.9848 0.0000 0.1737
vn 0.8660 0.0000 0.5000
vn 0.6428 0.0000 0.7660
vn 0.3420 0.0000 0.9397
vn -0.3420 0.0000 0.9397
vn -0.6428 0.0000 0.7660
vn -0.8660 0.0000 0.5000
vn -0.9848 0.0000 0.1737
vn -0.9848 0.0000 -0.1736
vn -0.8660 0.0000 -0.5000
vn -0.6428 0.0000 -0.7660
vn -0.6428 0.0000 -0.7661
vn -0.3420 0.0000 -0.9397
vn 0.3420 0.0000 -0.9397
vn 0.6428 0.0000 -0.7660
vn 0.6428 0.0000 -0.7661
vn 0.8660 0.0000 -0.5000
vn 0.1564 0.0000 -0.9877
vn -0.1564 0.0000 -0.9877
vn -0.4540 0.0000 -0.8910
vn -0.7071 0.0000 -0.7071
vn -0.8910 0.0000 -0.4540
vn -0.9877 0.0000 -0.1564
vn -0.4540 0.0000 0.8910
vn 0.1564 0.0000 0.9877
vn 0.4540 0.0000 0.8910
vn 0.8910 0.0000 0.4540
vn 0.9877 0.0000 0.1564
vn 0.9877 0.0000 -0.1564
vn 0.8910 0.0000 -0.4540
vn 0.7071 0.0000 -0.7071
vn 0.4540 0.0000 -0.8910
vn -1.0000 0.0000 0.0000
usemtl AluminumBodyMaterial.006
s 1
f 1//1 2//1 3//1
f 1//1 4//1 2//1
f 3//2 2//2 5//2
f 3//2 5//2 6//2
f 6//3 5//3 7//3
f 6//3 7//3 8//3
f 8//4 7//4 9//4
f 8//4 9//4 10//4
f 10//5 9//5 11//5
f 10//5 11//5 12//5
f 12//6 11//6 13//6
f 12//6 13//6 14//6
f 14//7 13//7 15//7
f 14//7 15//7 16//7
f 16//8 15//8 17//8
f 16//8 17//8 18//8
f 18//9 17//9 19//9
f 18//9 19//9 20//9
f 20//10 19//10 21//10
f 20//10 21//10 22//10
f 22//11 21//11 23//11
f 22//11 23//11 24//11
f 24//12 23//12 25//12
f 24//12 25//12 26//12
f 26//13 25//13 27//13
f 26//13 27//13 28//13
f 28//14 27//14 29//14
f 28//14 29//14 30//14
f 30//15 29//15 31//15
f 30//15 31//15 32//15
f 32//16 31//16 33//16
f 32//16 33//16 34//16
f 34//17 33//17 35//17
f 34//17 35//17 36//17
f 36//18 35//18 37//18
f 36//18 37//18 38//18
f 38//19 37//19 39//19
f 38//19 39//19 40//19
f 40//20 39//20 41//20
f 40//20 41//20 42//20
f 42//21 41//21 43//21
f 42//21 43//21 44//21
f 44//22 43//22 45//22
f 44//22 45//22 46//22
f 46//23 45//23 47//23
f 46//23 47//23 48//23
f 48//24 47//24 49//24
f 48//24 49//24 50//24
f 50//25 49//25 51//25
f 50//25 51//25 52//25
f 52//26 51//26 53//26
f 52//26 53//26 54//26
f 54//27 53//27 55//27
f 54//27 55//27 56//27
f 56//28 55//28 57//28
f 56//28 57//28 58//28
f 58//29 57//29 4//29
f 58//29 4//29 1//29
f 45//30 43//30 17//30
f 45//30 17//30 47//30
f 43//30 41//30 17//30
f 17//30 41//30 39//30
f 17//30 39//30 37//30
f 37//30 35//30 17//30
f 17//30 35//30 33//30
f 17//30 33//30 31//30
f 31//30 29//30 17//30
f 17//30 29//30 27//30
f 17//30 27//30 25//30
f 25//30 23//30 17//30
f 17//30 23//30 21//30
f 17//30 21//30 19//30
f 47//30 17//30 15//30
f 47//30 15//30 13//30
f 13//30 49//30 47//30
f 13//30 51//30 49//30
f 53//30 51//30 13//30
f 55//30 53//30 13//30
f 11//30 4//30 13//30
f 13//30 4//30 57//30
f 13//30 57//30 55//30
f 11//30 9//30 4//30
f 4//30 9//30 7//30
f 4//30 7//30 59//30
f 59//30 7//30 5//30
f 60//31 61//31 62//31
f 63//31 64//31 60//31
f 63//31 60//31 65//31
f 65//31 60//31 62//31
f 65//31 66//31 63//31
f 67//31 64//31 63//31
f 68//32 69//32 70//32
f 71//32 68//32 72//32
f 72//32 68//32 70//32
f 70//32 73//32 74//32
f 72//32 70//32 75//32
f 75//32 70//32 74//32
f 76//32 77//32 72//32
f 72//32 77//32 78//32
f 72//32 78//32 71//32
f 76//32 79//32 77//32
f 77//32 79//32 80//32
f 77//32 80//32 81//32
f 82//32 80//32 79//32
f 83//32 84//32 80//32
f 83//32 80//32 82//32
f 85//32 84//32 83//32
f 62//33 61//33 86//33
f 86//33 61//33 87//33
f 86//33 87//33 88//33
f 87//33 89//33 88//33
f 88//33 89//33 90//33
f 88//33 90//33 91//33
f 91//33 92//33 88//33
f 88//33 92//33 93//33
f 88//33 93//33 94//33
f 94//33 95//33 88//33
f 88//33 95//33 96//33
f 88//33 96//33 97//33
f 88//33 97//33 98//33
f 98//33 99//33 88//33
f 88//33 99//33 100//33
f 88//33 100//33 101//33
f 102//33 88//33 103//33
f 103//33 88//33 101//33
f 103//33 104//33 102//33
f 102//33 104//33 105//33
f 102//33 105//33 106//33
f 106//33 105//33 107//33
f 61//34 60//34 108//34
f 61//34 108//34 87//34
f 87//35 108//35 109//35
f 87//35 109//35 89//35
f 89//36 109//36 110//36
f 89//36 110//36 90//36
f 60//32 64//32 108//32
f 108//32 64//32 109//32
f 64//32 111//32 109//32
f 111//32 112//32 109//32
f 109//32 112//32 113//32
f 109//32 113//32 110//32
f 64//32 114//32 111//32
f 115//32 114//32 64//32
f 64//32 116//32 115//32
f 116//32 64//32 117//32
f 117//32 64//32 118//32
f 117//32 118//32 119//32
f 119//32 118//32 120//32
f 121//32 122//32 119//32
f 121//32 119//32 123//32
f 119//32 120//32 123//32
f 124//32 122//32 121//32
f 124//32 125//32 122//32
f 122//32 125//32 126//32
f 122//32 126//32 127//32
f 127//32 126//32 128//32
f 127//32 128//32 129//32
f 129//32 128//32 130//32
f 129//32 130//32 131//32
f 131//32 130//32 132//32
f 131//32 132//32 133//32
f 133//32 132//32 134//32
f 133//32 134//32 135//32
f 136//32 137//32 134//32
f 135//32 134//32 137//32
f 138//32 137//32 136//32
f 136//32 139//32 138//32
f 138//32 139//32 140//32
f 138//32 140//32 141//32
f 141//32 140//32 142//32
f 141//32 142//32 143//32
f 143//32 142//32 144//32
f 113//32 143//32 145//32
f 143//32 144//32 145//32
f 110//32 113//32 145//32
f 91//37 145//37 144//37
f 91//37 144//37 92//37
f 92//38 144//38 142//38
f 92//38 142//38 93//38
f 93//39 142//39 140//39
f 93//39 140//39 94//39
f 94//40 140//40 139//40
f 94//40 139//40 95//40
f 95//41 139//41 136//41
f 95//41 136//41 96//41
f 96//42 136//42 134//42
f 96//42 134//42 97//42
f 97//43 134//43 132//43
f 97//43 132//43 98//43
f 98//44 132//44 130//44
f 98//44 130//44 99//44
f 99//45 130//45 128//45
f 99//45 128//45 100//45
f 100//46 128//46 126//46
f 100//46 126//46 101//46
f 145//16 91//16 110//16
f 110//16 91//16 90//16
f 103//47 125//47 124//47
f 103//47 124//47 104//47
f 104//48 124//48 121//48
f 104//48 121//48 105//48
f 105//49 121//49 123//49
f 105//49 123//49 107//49
f 107//50 123//50 120//50
f 107//50 120//50 106//50
f 106//51 120//51 118//51
f 106//51 118//51 102//51
f 101//31 126//31 103//31
f 103//31 126//31 125//31
f 141//52 85//52 138//52
f 141//52 84//52 85//52
f 138//53 85//53 83//53
f 138//53 83//53 137//53
f 137//54 83//54 82//54
f 137//54 82//54 135//54
f 135//55 82//55 79//55
f 135//55 79//55 133//55
f 133//56 79//56 76//56
f 133//56 76//56 131//56
f 131//31 76//31 72//31
f 131//31 72//31 129//31
f 129//57 72//57 75//57
f 129//57 75//57 127//57
f 127//58 75//58 74//58
f 127//58 74//58 122//58
f 122//59 74//59 73//59
f 122//59 73//59 119//59
f 119//60 73//60 70//60
f 119//60 70//60 117//60
f 117//61 70//61 69//61
f 117//61 69//61 116//61
f 116//62 69//62 68//62
f 116//62 68//62 115//62
f 115//63 68//63 71//63
f 115//63 71//63 114//64
f 114//65 71//65 78//65
f 114//65 78//65 111//65
f 111//30 78//30 77//30
f 111//30 77//30 112//30
f 112//66 77//66 81//66
f 112//66 81//66 113//66
f 113//67 81//68 80//67
f 113//67 80//67 143//67
f 143//69 80//69 84//69
f 143//69 84//69 141//69
f 146//33 147//33 148//33
f 148//33 149//33 146//33
f 146//33 149//33 150//33
f 146//33 150//33 151//33
f 151//33 152//33 146//33
f 146//33 152//33 153//33
f 146//33 153//33 154//33
f 148//33 147//33 155//33
f 148//33 155//33 156//33
f 156//33 157//33 148//33
f 148//33 157//33 158//33
f 148//33 158//33 159//33
f 159//33 160//33 148//33
f 148//33 160//33 161//33
f 148//33 162//33 163//33
f 148//33 161//33 162//33
f 163//33 162//33 164//33
f 154//33 153//33 165//33
f 65//32 166//32 66//32
f 66//32 166//32 167//32
f 167//32 166//32 168//32
f 168//32 166//32 169//32
f 168//32 169//32 170//32
f 169//32 171//32 170//32
f 169//32 172//32 171//32
f 173//32 172//32 169//32
f 169//32 174//32 173//32
f 169//32 175//32 174//32
f 169//32 176//32 175//32
f 177//32 176//32 169//32
f 178//32 177//32 169//32
f 178//32 169//32 179//32
f 169//32 180//32 179//32
f 169//32 181//32 180//32
f 182//32 183//32 181//32
f 182//32 181//32 169//32
f 184//32 183//32 182//32
f 185//32 186//32 183//32
f 185//32 183//32 184//32
f 187//32 186//32 185//32
f 63//34 66//34 167//34
f 63//34 167//34 188//34
f 188//35 167//35 168//35
f 188//35 168//35 189//35
f 189//36 168//36 170//36
f 189//36 170//36 190//36
f 189//33 191//33 192//33
f 192//33 193//33 189//33
f 189//33 193//33 194//33
f 189//33 194//33 188//33
f 190//33 195//33 189//33
f 189//33 195//33 196//33
f 189//33 196//33 191//33
f 188//33 194//33 197//33
f 188//33 197//33 198//33
f 198//33 199//33 188//33
f 188//33 199//33 67//33
f 188//33 67//33 63//33
f 199//33 200//33 67//33
f 67//33 200//33 201//33
f 67//33 201//33 202//33
f 202//33 201//33 203//33
f 204//33 202//33 205//33
f 202//33 203//33 205//33
f 205//33 206//33 204//33
f 207//33 208//33 205//33
f 205//33 208//33 206//33
f 209//33 210//33 207//33
f 207//33 210//33 208//33
f 209//33 207//33 211//33
f 211//33 207//33 212//33
f 211//33 212//33 213//33
f 213//33 212//33 214//33
f 213//33 214//33 215//33
f 215//33 214//33 216//33
f 215//33 216//33 217//33
f 217//33 216//33 218//33
f 217//33 218//33 219//33
f 219//33 218//33 220//33
f 219//33 220//33 221//33
f 221//33 220//33 222//33
f 221//33 222//33 195//33
f 223//33 221//33 190//33
f 190//33 221//33 195//33
f 190//33 224//33 223//33
f 190//33 225//33 226//33
f 226//33 227//33 190//33
f 190//33 227//33 224//33
f 209//47 183//47 186//47
f 209//47 186//47 210//47
f 210//48 186//48 187//48
f 210//48 187//48 208//48
f 208//49 187//49 185//49
f 208//49 185//49 206//49
f 206//50 185//50 184//50
f 206//50 184//50 204//50
f 204//51 184//51 182//51
f 204//51 182//51 202//51
f 171//16 225//16 170//16
f 170//16 225//16 190//16
f 225//37 171//37 172//37
f 225//37 172//37 226//37
f 226//38 172//38 173//38
f 226//38 173//38 227//38
f 227//39 173//39 174//39
f 227//39 174//39 224//39
f 224//40 174//40 175//40
f 224//40 175//40 223//40
f 223//41 175//41 176//41
f 223//41 176//41 221//41
f 221//42 176//42 177//42
f 221//42 177//42 219//42
f 219//43 177//43 178//43
f 219//43 178//43 217//43
f 217//44 178//44 179//44
f 217//44 179//44 215//44
f 215//45 179//45 180//45
f 215//45 180//45 213//45
f 213//46 180//46 181//46
f 213//46 181//46 211//46
f 183//31 209//31 181//31
f 181//31 209//31 211//31
f 194//70 228//70 229//70
f 194//70 151//70 228//70
f 229//71 228//71 149//71
f 229//71 149//71 198//71
f 198//72 149//72 148//72
f 198//72 148//72 199//72
f 199//73 148//73 163//73
f 199//73 163//73 200//73
f 200//74 163//74 164//74
f 200//74 164//74 201//74
f 201//75 164//75 162//75
f 201//75 162//75 203//75
f 203//51 162//51 161//51
f 203//51 161//51 205//51
f 205//50 161//50 160//50
f 205//50 160//50 207//50
f 207//49 160//49 159//49
f 207//49 159//49 212//49
f 212//76 159//76 158//76
f 212//76 158//76 214//76
f 214//47 158//47 157//47
f 214//47 157//47 230//47
f 230//77 157//77 156//77
f 230//77 156//77 218//77
f 218//78 156//78 155//78
f 218//78 155//78 220//78
f 220//35 155//35 147//35
f 220//35 147//35 222//35
f 222//79 147//79 146//79
f 222//79 146//79 195//79
f 195//80 146//80 154//80
f 195//80 154//80 196//80
f 196//81 154//81 165//81
f 196//81 165//81 191//81
f 191//82 165//82 153//82
f 191//82 153//82 192//82
f 192//83 153//83 152//83
f 192//83 152//83 193//83
f 193//84 152//84 151//84
f 193//84 151//84 194//84
f 169//30 32//30 88//30
f 22//30 24//30 169//30
f 169//30 24//30 26//30
f 166//30 18//30 169//30
f 169//30 18//30 20//30
f 169//30 20//30 22//30
f 26//30 28//30 169//30
f 169//30 28//30 30//30
f 169//30 30//30 32//30
f 88//30 32//30 34//30
f 88//30 34//30 36//30
f 36//30 38//30 88//30
f 88//30 38//30 40//30
f 88//30 40//30 42//30
f 42//30 44//30 88//30
f 88//30 44//30 46//30
f 88//30 46//30 86//30
f 86//30 46//30 48//30
f 86//30 48//30 50//30
f 86//30 50//30 52//30
f 52//30 54//30 86//30
f 86//30 54//30 56//30
f 86//30 56//30 58//30
f 58//30 1//30 86//30
f 86//30 1//30 231//30
f 86//30 231//30 166//30
f 166//30 231//30 6//30
f 166//30 6//30 8//30
f 8//30 10//30 166//30
f 166//30 10//30 12//30
f 166//30 12//30 14//30
f 14//30 16//30 166//30
f 166//30 16//30 18//30
f 86//16 166//16 62//16
f 62//16 166//16 65//16
f 202//85 182//85 67//85
f 67//85 182//85 169//85
f 67//85 169//85 64//85
f 64//85 169//85 88//85
f 64//85 88//85 118//85
f 118//85 88//85 102//85
