# 
# Wavefront OBJ file
# Converted by the DEEP Exploration 2.00.1211
# Right Hemisphere, LTD
# http://www.righthemisphere.com/
# 
mtllib ball.mtl
# object Object #0
g Object__0
v -0.015 0.375 3.0548e-006
v -0.0138612 0.375 -0.00573718
v -0.0106122 0.375 -0.0106078
v -0.00574282 0.375 -0.0138588
v -3.0548e-006 0.375 -0.015
v 0.00573718 0.375 -0.0138612
v 0.0106078 0.375 -0.0106122
v 0.0138588 0.375 -0.00574282
v 0.015 0.375 -3.0548e-006
v 0.0138612 0.375 0.00573718
v 0.0106122 0.375 0.0106078
v 0.00574282 0.375 0.0138588
v 3.0548e-006 0.375 0.015
v -0.00573718 0.375 0.0138612
v -0.0106078 0.375 0.0106122
v -0.0138588 0.375 0.00574282
v 2.2966e-017 0.375 2.29614e-017
v -0.015 -0.375 3.0548e-006
v -0.0138612 -0.375 -0.00573718
v -0.0106122 -0.375 -0.0106078
v -0.00574282 -0.375 -0.0138588
v -3.0548e-006 -0.375 -0.015
v 0.00573718 -0.375 -0.0138612
v 0.0106078 -0.375 -0.0106122
v 0.0138588 -0.375 -0.00574282
v 0.015 -0.375 -3.0548e-006
v 0.0138612 -0.375 0.00573718
v 0.0106122 -0.375 0.0106078
v 0.00574282 -0.375 0.0138588
v 3.0548e-006 -0.375 0.015
v -0.00573718 -0.375 0.0138612
v -0.0106078 -0.375 0.0106122
v -0.0138588 -0.375 0.00574282
v -2.2966e-017 -0.375 -2.29614e-017
# 34 verticies
vn 3.66457e-016 1 0
vn 9.16143e-017 1 0
vn 0 1 0
vn 0 -1 0
vn 9.16143e-017 -1 0
vn 3.66457e-016 -1 0
vn -0.997829 0 -0.0658543
vn -0.947362 0 -0.320164
vn -0.997802 0 0.0662606
vn -0.896841 0 -0.442354
vn -0.752603 0 -0.658474
vn -0.658781 0 -0.752335
vn -0.442719 0 -0.896661
vn -0.32055 0 -0.947232
vn -0.0662606 0 -0.997802
vn 0.0658543 0 -0.997829
vn 0.320164 0 -0.947362
vn 0.442354 0 -0.896841
vn 0.658474 0 -0.752603
vn 0.752335 0 -0.658781
vn 0.896661 0 -0.442719
vn 0.947232 0 -0.32055
vn 0.997802 0 -0.0662606
vn 0.997829 0 0.0658543
vn 0.947362 0 0.320164
vn 0.896841 0 0.442354
vn 0.752603 0 0.658474
vn 0.658781 0 0.752335
vn 0.442719 0 0.896661
vn 0.32055 0 0.947232
vn 0.0662606 0 0.997802
vn -0.0658543 0 0.997829
vn -0.320164 0 0.947362
vn -0.442354 0 0.896841
vn -0.658474 0 0.752603
vn -0.752335 0 0.658781
vn -0.896661 0 0.442719
vn -0.947232 0 0.32055
# 38 normals
usemtl Material__1
f  1//1 17//2 2//1
f  2//1 17//2 3//3
f  3//3 17//2 4//3
f  4//3 17//2 5//3
f  5//3 17//2 6//3
f  6//3 17//2 7//3
f  7//3 17//2 8//3
f  8//3 17//2 9//1
f  9//1 17//2 10//1
f  10//1 17//2 11//3
f  11//3 17//2 12//3
f  12//3 17//2 13//3
f  13//3 17//2 14//3
f  14//3 17//2 15//3
f  15//3 17//2 16//3
f  16//3 17//2 1//1
f  19//4 34//5 18//6
f  20//4 34//5 19//4
f  21//4 34//5 20//4
f  22//4 34//5 21//4
f  23//4 34//5 22//4
f  24//4 34//5 23//4
f  25//6 34//5 24//4
f  26//6 34//5 25//6
f  27//4 34//5 26//6
f  28//4 34//5 27//4
f  29//4 34//5 28//4
f  30//4 34//5 29//4
f  31//4 34//5 30//4
f  32//4 34//5 31//4
f  33//6 34//5 32//4
f  18//6 34//5 33//6
f  1//7 19//8 18//9
f  19//8 1//7 2//10
f  2//10 20//11 19//8
f  20//11 2//10 3//12
f  3//12 21//13 20//11
f  21//13 3//12 4//14
f  4//14 22//15 21//13
f  22//15 4//14 5//16
f  5//16 23//17 22//15
f  23//17 5//16 6//18
f  6//18 24//19 23//17
f  24//19 6//18 7//20
f  7//20 25//21 24//19
f  25//21 7//20 8//22
f  8//22 26//23 25//21
f  26//23 8//22 9//24
f  9//24 27//25 26//23
f  27//25 9//24 10//26
f  10//26 28//27 27//25
f  28//27 10//26 11//28
f  11//28 29//29 28//27
f  29//29 11//28 12//30
f  12//30 30//31 29//29
f  30//31 12//30 13//32
f  13//32 31//33 30//31
f  31//33 13//32 14//34
f  14//34 32//35 31//33
f  32//35 14//34 15//36
f  15//36 33//37 32//35
f  33//37 15//36 16//38
f  16//38 18//9 33//37
f  18//9 16//38 1//7
