# 
# Wavefront OBJ file
# Converted by the DEEP Exploration 2.00.1211
# Right Hemisphere, LTD
# http://www.righthemisphere.com/
# 
mtllib shaft.mtl
# object Object #0
g Object__0
v -0.0375 0.0375 -0.75
v -0.0375 0.0375 0
v 0.0375 0.0375 0
v 0.0375 0.0375 -0.75
v -0.0375 -0.0375 -0.75
v -0.0375 -0.0375 0
v 0.0375 -0.0375 0
v 0.0375 -0.0375 -0.75
# 8 verticies
vn 0 1 0
vn 0 0 1
vn 1 0 0
vn 0 0 -1
vn -1 0 0
vn 0 -1 0
# 6 normals
usemtl Material__2
f  1//1 2//1 3//1
f  1//1 3//1 4//1
f  2//2 6//2 7//2
f  2//2 7//2 3//2
f  3//3 7//3 8//3
f  3//3 8//3 4//3
f  4//4 8//4 5//4
f  4//4 5//4 1//4
f  1//5 5//5 6//5
f  1//5 6//5 2//5
f  7//6 6//6 5//6
f  7//6 5//6 8//6
