# Blender 4.0.2
# www.blender.org
mtllib CHEEK_P_LINK_mesh.mtl
o CHEEK_P_LINK
v 0.148081 0.025000 -0.027943
v 0.148081 0.025000 -0.017943
v 0.148081 0.035000 -0.017943
v 0.148081 0.035000 -0.027943
v 0.148081 0.035000 -0.027943
v 0.148081 0.035000 -0.017943
v 0.158081 0.035000 -0.017943
v 0.158081 0.035000 -0.027943
v 0.158081 0.035000 -0.017943
v 0.148081 0.035000 -0.017943
v 0.148081 0.025000 -0.017943
v 0.158081 0.025000 -0.017943
v 0.148081 0.025000 -0.017943
v 0.148081 0.025000 -0.027943
v 0.158081 0.025000 -0.017943
v 0.158081 0.025000 -0.027943
v 0.158081 0.025000 -0.017943
v 0.158081 0.025000 -0.027943
v 0.158081 0.035000 -0.017943
v 0.158081 0.035000 -0.027943
v 0.158081 0.035000 -0.027943
v 0.158081 0.025000 -0.027943
v 0.148081 0.025000 -0.027943
v 0.148081 0.035000 -0.027943
vn -1.0000 -0.0000 -0.0000
vn -0.0000 1.0000 -0.0000
vn -0.0000 -0.0000 1.0000
vn -0.0000 -1.0000 -0.0000
vn 1.0000 -0.0000 -0.0000
vn -0.0000 -0.0000 -1.0000
s 0
usemtl blinn20.008
f 1//1 2//1 3//1
f 3//1 4//1 1//1
f 5//2 6//2 7//2
f 5//2 7//2 8//2
f 9//3 10//3 11//3
f 11//3 12//3 9//3
f 13//4 14//4 15//4
f 15//4 14//4 16//4
f 17//5 18//5 19//5
f 19//5 18//5 20//5
f 21//6 22//6 23//6
f 23//6 24//6 21//6
o CHEEK_P_LINK.001
v 0.148081 -0.035000 -0.027943
v 0.148081 -0.035000 -0.017943
v 0.148081 -0.025000 -0.017943
v 0.148081 -0.025000 -0.027943
v 0.148081 -0.025000 -0.027943
v 0.148081 -0.025000 -0.017943
v 0.158081 -0.025000 -0.017943
v 0.158081 -0.025000 -0.027943
v 0.158081 -0.025000 -0.017943
v 0.148081 -0.025000 -0.017943
v 0.148081 -0.035000 -0.017943
v 0.158081 -0.035000 -0.017943
v 0.148081 -0.035000 -0.017943
v 0.148081 -0.035000 -0.027943
v 0.158081 -0.035000 -0.017943
v 0.158081 -0.035000 -0.027943
v 0.158081 -0.035000 -0.017943
v 0.158081 -0.035000 -0.027943
v 0.158081 -0.025000 -0.017943
v 0.158081 -0.025000 -0.027943
v 0.158081 -0.025000 -0.027943
v 0.158081 -0.035000 -0.027943
v 0.148081 -0.035000 -0.027943
v 0.148081 -0.025000 -0.027943
vn -1.0000 -0.0000 -0.0000
vn -0.0000 1.0000 -0.0000
vn -0.0000 -0.0000 1.0000
vn -0.0000 -1.0000 -0.0000
vn 1.0000 -0.0000 -0.0000
vn -0.0000 -0.0000 -1.0000
s 0
usemtl blinn21.005
f 25//7 26//7 27//7
f 27//7 28//7 25//7
f 29//8 30//8 31//8
f 29//8 31//8 32//8
f 33//9 34//9 35//9
f 35//9 36//9 33//9
f 37//10 38//10 39//10
f 39//10 38//10 40//10
f 41//11 42//11 43//11
f 43//11 42//11 44//11
f 45//12 46//12 47//12
f 47//12 48//12 45//12
