# Blender 4.0.2
# www.blender.org
mtllib EYELID_P_LINK_mesh.mtl
o EYELID_P_LINK
v -0.067204 -0.035700 -0.055372
v -0.067282 -0.035900 -0.055115
v -0.066699 -0.031500 -0.054937
v -0.066699 -0.031500 -0.054937
v -0.066656 -0.031600 -0.055215
v -0.067204 -0.035700 -0.055372
v -0.068877 -0.039800 -0.055852
v -0.068985 -0.039900 -0.055636
v -0.067282 -0.035900 -0.055115
v -0.067282 -0.035900 -0.055115
v -0.067271 -0.036000 -0.055391
v -0.068877 -0.039800 -0.055852
v -0.067204 -0.035700 -0.055372
v -0.067271 -0.036000 -0.055391
v -0.067282 -0.035900 -0.055115
v -0.066685 -0.031100 -0.055223
v -0.066656 -0.031600 -0.055215
v -0.066699 -0.031500 -0.054937
v -0.068034 -0.028000 -0.052658
v -0.067204 -0.028000 -0.055372
v -0.066685 -0.031100 -0.055223
v -0.066685 -0.031100 -0.055223
v -0.066699 -0.031500 -0.054937
v -0.068034 -0.028000 -0.052658
v -0.070430 -0.024700 -0.050908
v -0.068315 -0.024300 -0.055431
v -0.068034 -0.028000 -0.052658
v -0.068498 -0.032900 -0.051139
v -0.068034 -0.028000 -0.052658
v -0.066699 -0.031500 -0.054937
v -0.070305 -0.029300 -0.048923
v -0.070430 -0.024700 -0.050908
v -0.068034 -0.028000 -0.052658
v -0.068498 -0.032900 -0.051139
v -0.070305 -0.029300 -0.048923
v -0.068034 -0.028000 -0.052658
v -0.071324 -0.034100 -0.047985
v -0.070305 -0.029300 -0.048923
v -0.068498 -0.032900 -0.051139
v -0.067282 -0.035900 -0.055115
v -0.068498 -0.032900 -0.051139
v -0.066699 -0.031500 -0.054937
v -0.069545 -0.037300 -0.051409
v -0.071324 -0.034100 -0.047985
v -0.068498 -0.032900 -0.051139
v -0.067282 -0.035900 -0.055115
v -0.069545 -0.037300 -0.051409
v -0.068498 -0.032900 -0.051139
v -0.068985 -0.039900 -0.055636
v -0.069545 -0.037300 -0.051409
v -0.067282 -0.035900 -0.055115
v -0.070867 -0.020800 -0.056422
v -0.071686 -0.020800 -0.053744
v -0.073956 -0.017900 -0.057156
v -0.073956 -0.017900 -0.057156
v -0.073738 -0.018100 -0.057245
v -0.070867 -0.020800 -0.056422
v -0.068315 -0.024300 -0.055431
v -0.070430 -0.024700 -0.050908
v -0.071686 -0.020800 -0.053744
v -0.068315 -0.024300 -0.055431
v -0.071686 -0.020800 -0.053744
v -0.070867 -0.020800 -0.056422
v -0.070867 -0.020800 -0.056422
v -0.068492 -0.024000 -0.055741
v -0.068315 -0.024300 -0.055431
v -0.073676 -0.025700 -0.047235
v -0.074145 -0.030700 -0.045700
v -0.077739 -0.027300 -0.044781
v -0.070305 -0.029300 -0.048923
v -0.071324 -0.034100 -0.047985
v -0.074145 -0.030700 -0.045700
v -0.073676 -0.025700 -0.047235
v -0.070305 -0.029300 -0.048923
v -0.074145 -0.030700 -0.045700
v -0.070430 -0.024700 -0.050908
v -0.070305 -0.029300 -0.048923
v -0.073676 -0.025700 -0.047235
v -0.073385 -0.038700 -0.048185
v -0.072156 -0.041700 -0.052207
v -0.076294 -0.042500 -0.049505
v -0.069545 -0.037300 -0.051409
v -0.068985 -0.039900 -0.055636
v -0.072156 -0.041700 -0.052207
v -0.073385 -0.038700 -0.048185
v -0.069545 -0.037300 -0.051409
v -0.072156 -0.041700 -0.052207
v -0.071324 -0.034100 -0.047985
v -0.069545 -0.037300 -0.051409
v -0.073385 -0.038700 -0.048185
v -0.071681 -0.043300 -0.056460
v -0.072156 -0.041700 -0.052207
v -0.068985 -0.039900 -0.055636
v -0.075477 -0.044700 -0.053273
v -0.076294 -0.042500 -0.049505
v -0.072156 -0.041700 -0.052207
v -0.071681 -0.043300 -0.056460
v -0.075477 -0.044700 -0.053273
v -0.072156 -0.041700 -0.052207
v -0.075158 -0.045800 -0.057523
v -0.075477 -0.044700 -0.053273
v -0.071681 -0.043300 -0.056460
v -0.071681 -0.043300 -0.056460
v -0.068985 -0.039900 -0.055636
v -0.069021 -0.040000 -0.055893
v -0.069021 -0.040000 -0.055893
v -0.071588 -0.043200 -0.056629
v -0.071681 -0.043300 -0.056460
v -0.075093 -0.045800 -0.057634
v -0.075158 -0.045800 -0.057523
v -0.071681 -0.043300 -0.056460
v -0.071681 -0.043300 -0.056460
v -0.071742 -0.043400 -0.056673
v -0.075093 -0.045800 -0.057634
v -0.071588 -0.043200 -0.056629
v -0.071742 -0.043400 -0.056673
v -0.071681 -0.043300 -0.056460
v -0.073711 -0.021900 -0.049822
v -0.071686 -0.020800 -0.053744
v -0.070430 -0.024700 -0.050908
v -0.075540 -0.018400 -0.053068
v -0.073956 -0.017900 -0.057156
v -0.071686 -0.020800 -0.053744
v -0.073711 -0.021900 -0.049822
v -0.075540 -0.018400 -0.053068
v -0.071686 -0.020800 -0.053744
v -0.077617 -0.019900 -0.049479
v -0.075540 -0.018400 -0.053068
v -0.073711 -0.021900 -0.049822
v -0.073676 -0.025700 -0.047235
v -0.073711 -0.021900 -0.049822
v -0.070430 -0.024700 -0.050908
v -0.077507 -0.023300 -0.046634
v -0.077617 -0.019900 -0.049479
v -0.073711 -0.021900 -0.049822
v -0.073676 -0.025700 -0.047235
v -0.077507 -0.023300 -0.046634
v -0.073711 -0.021900 -0.049822
v -0.077739 -0.027300 -0.044781
v -0.077507 -0.023300 -0.046634
v -0.073676 -0.025700 -0.047235
v -0.074965 -0.035200 -0.045721
v -0.074145 -0.030700 -0.045700
v -0.071324 -0.034100 -0.047985
v -0.078296 -0.031600 -0.044052
v -0.077739 -0.027300 -0.044781
v -0.074145 -0.030700 -0.045700
v -0.074965 -0.035200 -0.045721
v -0.078296 -0.031600 -0.044052
v -0.074145 -0.030700 -0.045700
v -0.079137 -0.035900 -0.044508
v -0.078296 -0.031600 -0.044052
v -0.074965 -0.035200 -0.045721
v -0.073385 -0.038700 -0.048185
v -0.074965 -0.035200 -0.045721
v -0.071324 -0.034100 -0.047985
v -0.077545 -0.039500 -0.046510
v -0.079137 -0.035900 -0.044508
v -0.074965 -0.035200 -0.045721
v -0.073385 -0.038700 -0.048185
v -0.077545 -0.039500 -0.046510
v -0.074965 -0.035200 -0.045721
v -0.076294 -0.042500 -0.049505
v -0.077545 -0.039500 -0.046510
v -0.073385 -0.038700 -0.048185
v -0.075540 -0.018400 -0.053068
v -0.077617 -0.019900 -0.049479
v -0.080473 -0.017600 -0.051889
v -0.078531 -0.016300 -0.055837
v -0.075540 -0.018400 -0.053068
v -0.080473 -0.017600 -0.051889
v -0.073956 -0.017900 -0.057156
v -0.075540 -0.018400 -0.053068
v -0.078531 -0.016300 -0.055837
v -0.077507 -0.023300 -0.046634
v -0.077739 -0.027300 -0.044781
v -0.081750 -0.024300 -0.045307
v -0.081689 -0.020600 -0.047913
v -0.077507 -0.023300 -0.046634
v -0.081750 -0.024300 -0.045307
v -0.077617 -0.019900 -0.049479
v -0.077507 -0.023300 -0.046634
v -0.081689 -0.020600 -0.047913
v -0.078296 -0.031600 -0.044052
v -0.079137 -0.035900 -0.044508
v -0.082943 -0.033800 -0.043810
v -0.082221 -0.029300 -0.043767
v -0.078296 -0.031600 -0.044052
v -0.082943 -0.033800 -0.043810
v -0.077739 -0.027300 -0.044781
v -0.078296 -0.031600 -0.044052
v -0.082221 -0.029300 -0.043767
v -0.077545 -0.039500 -0.046510
v -0.076294 -0.042500 -0.049505
v -0.080990 -0.042200 -0.047793
v -0.082478 -0.038700 -0.045331
v -0.077545 -0.039500 -0.046510
v -0.080990 -0.042200 -0.047793
v -0.079137 -0.035900 -0.044508
v -0.077545 -0.039500 -0.046510
v -0.082478 -0.038700 -0.045331
v -0.075477 -0.044700 -0.053273
v -0.075158 -0.045800 -0.057523
v -0.079195 -0.046900 -0.056070
v -0.079761 -0.045300 -0.051814
v -0.075477 -0.044700 -0.053273
v -0.079195 -0.046900 -0.056070
v -0.076294 -0.042500 -0.049505
v -0.075477 -0.044700 -0.053273
v -0.079761 -0.045300 -0.051814
v -0.079195 -0.046900 -0.056070
v -0.075158 -0.045800 -0.057523
v -0.075277 -0.045900 -0.057687
v -0.075277 -0.045900 -0.057687
v -0.078425 -0.046900 -0.058589
v -0.079195 -0.046900 -0.056070
v -0.081883 -0.047500 -0.059468
v -0.083269 -0.046700 -0.054935
v -0.079195 -0.046900 -0.056070
v -0.078425 -0.046900 -0.058589
v -0.081851 -0.047500 -0.059572
v -0.081883 -0.047500 -0.059468
v -0.081883 -0.047500 -0.059468
v -0.079195 -0.046900 -0.056070
v -0.078425 -0.046900 -0.058589
v -0.078531 -0.016300 -0.055837
v -0.077749 -0.016300 -0.058396
v -0.074123 -0.017800 -0.057356
v -0.074123 -0.017800 -0.057356
v -0.073956 -0.017900 -0.057156
v -0.078531 -0.016300 -0.055837
v -0.083274 -0.016300 -0.054920
v -0.081879 -0.015500 -0.059483
v -0.078531 -0.016300 -0.055837
v -0.081689 -0.020600 -0.047913
v -0.080473 -0.017600 -0.051889
v -0.077617 -0.019900 -0.049479
v -0.084572 -0.018500 -0.050674
v -0.083322 -0.016300 -0.054762
v -0.080473 -0.017600 -0.051889
v -0.081689 -0.020600 -0.047913
v -0.084622 -0.018600 -0.050509
v -0.084572 -0.018500 -0.050674
v -0.084572 -0.018500 -0.050674
v -0.080473 -0.017600 -0.051889
v -0.081689 -0.020600 -0.047913
v -0.085615 -0.022000 -0.047262
v -0.084622 -0.018600 -0.050509
v -0.081689 -0.020600 -0.047913
v -0.082221 -0.029300 -0.043767
v -0.081750 -0.024300 -0.045307
v -0.077739 -0.027300 -0.044781
v -0.086285 -0.026500 -0.045072
v -0.085644 -0.022200 -0.047166
v -0.081750 -0.024300 -0.045307
v -0.082221 -0.029300 -0.043767
v -0.086302 -0.026700 -0.045015
v -0.086285 -0.026500 -0.045072
v -0.086285 -0.026500 -0.045072
v -0.081750 -0.024300 -0.045307
v -0.082221 -0.029300 -0.043767
v -0.086521 -0.031400 -0.044297
v -0.086302 -0.026700 -0.045015
v -0.082221 -0.029300 -0.043767
v -0.082478 -0.038700 -0.045331
v -0.082943 -0.033800 -0.043810
v -0.079137 -0.035900 -0.044508
v -0.086302 -0.036300 -0.045015
v -0.086521 -0.031600 -0.044297
v -0.082943 -0.033800 -0.043810
v -0.082478 -0.038700 -0.045331
v -0.086285 -0.036500 -0.045072
v -0.086302 -0.036300 -0.045015
v -0.086302 -0.036300 -0.045015
v -0.082943 -0.033800 -0.043810
v -0.082478 -0.038700 -0.045331
v -0.085647 -0.040800 -0.047157
v -0.086285 -0.036500 -0.045072
v -0.082478 -0.038700 -0.045331
v -0.079761 -0.045300 -0.051814
v -0.080990 -0.042200 -0.047793
v -0.076294 -0.042500 -0.049505
v -0.084618 -0.044400 -0.050522
v -0.085618 -0.041000 -0.047252
v -0.080990 -0.042200 -0.047793
v -0.079761 -0.045300 -0.051814
v -0.084575 -0.044500 -0.050663
v -0.084618 -0.044400 -0.050522
v -0.084618 -0.044400 -0.050522
v -0.080990 -0.042200 -0.047793
v -0.079761 -0.045300 -0.051814
v -0.083317 -0.046700 -0.054780
v -0.084575 -0.044500 -0.050663
v -0.079761 -0.045300 -0.051814
v -0.068137 -0.024700 -0.055639
v -0.068315 -0.024300 -0.055431
v -0.068271 -0.024400 -0.055678
v -0.068315 -0.024300 -0.055431
v -0.068137 -0.024700 -0.055639
v -0.067204 -0.028000 -0.055372
v -0.067204 -0.028000 -0.055372
v -0.068034 -0.028000 -0.052658
v -0.068315 -0.024300 -0.055431
v -0.069021 -0.040000 -0.055893
v -0.068985 -0.039900 -0.055636
v -0.068877 -0.039800 -0.055852
v -0.068271 -0.024400 -0.055678
v -0.068315 -0.024300 -0.055431
v -0.068492 -0.024000 -0.055741
v -0.073738 -0.018100 -0.057245
v -0.073956 -0.017900 -0.057156
v -0.073923 -0.017900 -0.057299
v -0.075277 -0.045900 -0.057687
v -0.075158 -0.045800 -0.057523
v -0.075093 -0.045800 -0.057634
v -0.073923 -0.017900 -0.057299
v -0.073956 -0.017900 -0.057156
v -0.074123 -0.017800 -0.057356
v -0.083322 -0.016300 -0.054762
v -0.083274 -0.016300 -0.054920
v -0.078531 -0.016300 -0.055837
v -0.078531 -0.016300 -0.055837
v -0.080473 -0.017600 -0.051889
v -0.083322 -0.016300 -0.054762
v -0.085644 -0.022200 -0.047166
v -0.085615 -0.022000 -0.047262
v -0.081689 -0.020600 -0.047913
v -0.081689 -0.020600 -0.047913
v -0.081750 -0.024300 -0.045307
v -0.085644 -0.022200 -0.047166
v -0.086521 -0.031600 -0.044297
v -0.086521 -0.031400 -0.044297
v -0.082221 -0.029300 -0.043767
v -0.082221 -0.029300 -0.043767
v -0.082943 -0.033800 -0.043810
v -0.086521 -0.031600 -0.044297
v -0.085618 -0.041000 -0.047252
v -0.085647 -0.040800 -0.047157
v -0.082478 -0.038700 -0.045331
v -0.082478 -0.038700 -0.045331
v -0.080990 -0.042200 -0.047793
v -0.085618 -0.041000 -0.047252
v -0.083269 -0.046700 -0.054935
v -0.083317 -0.046700 -0.054780
v -0.079761 -0.045300 -0.051814
v -0.079761 -0.045300 -0.051814
v -0.079195 -0.046900 -0.056070
v -0.083269 -0.046700 -0.054935
v -0.081879 -0.015500 -0.059483
v -0.081851 -0.015500 -0.059572
v -0.077749 -0.016300 -0.058396
v -0.078531 -0.016300 -0.055837
vn -0.9721 0.1366 -0.1908
vn -0.9701 0.1373 -0.2000
vn -0.8787 0.4065 -0.2503
vn -0.8977 0.4013 -0.1818
vn -0.9669 0.2247 -0.1206
vn -0.9895 -0.0592 -0.1322
vn -0.9421 -0.1716 -0.2880
vn -0.9422 -0.1721 -0.2876
vn -0.8257 -0.3772 -0.4194
vn -0.8948 -0.0526 -0.4433
vn -0.7798 -0.2657 -0.5668
vn -0.8372 -0.0880 -0.5398
vn -0.7501 0.0301 -0.6606
vn -0.9138 0.1367 -0.3825
vn -0.7667 0.2194 -0.6034
vn -0.8667 0.2332 -0.4410
vn -0.8405 0.4046 -0.3603
vn -0.6457 -0.7376 -0.1974
vn -0.6813 -0.7316 -0.0237
vn -0.7492 -0.5300 -0.3972
vn -0.7540 -0.6150 -0.2305
vn -0.7797 -0.6093 -0.1443
vn -0.4368 -0.2263 -0.8706
vn -0.6397 -0.0144 -0.7685
vn -0.5912 -0.1855 -0.7849
vn -0.6691 -0.3097 -0.6756
vn -0.5140 0.6048 -0.6083
vn -0.7461 0.5185 -0.4178
vn -0.6577 0.4935 -0.5691
vn -0.6746 0.3310 -0.6598
vn -0.7039 0.6353 -0.3175
vn -0.4757 0.7108 -0.5182
vn -0.5658 0.7490 -0.3448
vn -0.5134 0.8206 -0.2510
vn -0.7590 0.6359 -0.1398
vn -0.7729 0.6323 -0.0535
vn -0.4993 0.8169 -0.2887
vn -0.5194 0.8207 -0.2383
vn -0.7835 0.6176 -0.0681
vn -0.6526 -0.5717 -0.4973
vn -0.5414 -0.7833 -0.3056
vn -0.5245 -0.7100 -0.4699
vn -0.4194 -0.7254 -0.5458
vn -0.6035 -0.4525 -0.6565
vn -0.3708 -0.6030 -0.7064
vn -0.4355 -0.5093 -0.7423
vn -0.3675 -0.3733 -0.8518
vn -0.5476 0.1036 -0.8303
vn -0.3454 -0.1132 -0.9316
vn -0.3818 0.0738 -0.9213
vn -0.3001 0.1584 -0.9407
vn -0.5669 0.2876 -0.7719
vn -0.3153 0.3509 -0.8817
vn -0.4075 0.3955 -0.8231
vn -0.4000 0.5587 -0.7265
vn -0.2530 -0.8318 -0.4940
vn -0.2404 -0.8806 -0.4083
vn -0.3842 -0.8866 -0.2574
vn -0.1849 -0.4043 -0.8957
vn -0.1198 -0.5703 -0.8126
vn -0.1800 -0.6346 -0.7516
vn -0.1111 0.1262 -0.9858
vn -0.0611 0.0193 -0.9979
vn -0.1561 -0.1454 -0.9770
vn -0.2271 0.6391 -0.7349
vn -0.1120 0.5395 -0.8345
vn -0.1428 0.4321 -0.8905
vn -0.3397 0.9040 -0.2595
vn -0.2512 0.8945 -0.3697
vn -0.2917 0.7971 -0.5287
vn -0.3476 0.8914 -0.2910
vn -0.2793 0.9564 -0.0854
vn -0.0001 0.9848 -0.1738
vn -0.1587 0.9861 -0.0486
vn -0.1587 0.9861 -0.0485
vn -0.3535 -0.9292 -0.1081
vn -0.3651 -0.9183 -0.1527
vn -0.0354 -0.9825 -0.1831
vn -0.1043 -0.7783 -0.6191
vn 0.0586 -0.8864 -0.4591
vn -0.0970 -0.8384 -0.5363
vn -0.0035 -0.7978 -0.6030
vn 0.1359 -0.7047 -0.6964
vn -0.0884 -0.2855 -0.9543
vn 0.1741 -0.4520 -0.8749
vn 0.1111 -0.2827 -0.9527
vn 0.0971 -0.3012 -0.9486
vn 0.1960 -0.1569 -0.9680
vn -0.0122 0.2953 -0.9553
vn 0.2276 0.1573 -0.9610
vn 0.0982 0.2821 -0.9543
vn 0.1128 0.3042 -0.9459
vn 0.2018 0.4513 -0.8692
vn -0.1835 0.7506 -0.6347
vn 0.1007 0.7049 -0.7022
vn -0.0035 0.8144 -0.5803
vn -0.0170 0.7893 -0.6137
vn 0.0366 0.8860 -0.4623
vn -0.9125 -0.4090 0.0027
vn -0.9256 -0.2820 -0.2526
vn -0.9180 -0.2802 -0.2807
vn -0.7935 0.5967 -0.1197
vn -0.8771 -0.4789 0.0373
vn -0.7024 -0.6940 -0.1585
vn -0.4112 0.8800 -0.2377
vn -0.4233 -0.9009 -0.0955
vn -0.0000 -1.0000 -0.0000
vn -0.0776 -0.9350 -0.3461
vn 0.0045 -0.4318 -0.9020
vn 0.0789 -0.5749 -0.8144
vn 0.1224 -0.0000 -0.9925
vn 0.1283 -0.0111 -0.9917
vn 0.2061 0.4464 -0.8708
vn 0.0593 0.5912 -0.8044
vn -0.2982 0.9502 -0.0911
vn -0.0538 0.9323 -0.3577
vn -0.1762 -0.9829 -0.0539
s 0
usemtl blinn20.018
f 1//1 2//1 3//1
f 4//2 5//2 6//2
f 7//3 8//3 9//3
f 10//4 11//4 12//4
f 13//5 14//5 15//5
f 16//6 17//6 18//6
f 19//7 20//7 21//7
f 22//8 23//8 24//8
f 25//9 26//9 27//9
f 28//10 29//10 30//10
f 31//11 32//11 33//11
f 34//12 35//12 36//12
f 37//13 38//13 39//13
f 40//14 41//14 42//14
f 43//15 44//15 45//15
f 46//16 47//16 48//16
f 49//17 50//17 51//17
f 52//18 53//18 54//18
f 55//19 56//19 57//19
f 58//20 59//20 60//20
f 61//21 62//21 63//21
f 64//22 65//22 66//22
f 67//23 68//23 69//23
f 70//24 71//24 72//24
f 73//25 74//25 75//25
f 76//26 77//26 78//26
f 79//27 80//27 81//27
f 82//28 83//28 84//28
f 85//29 86//29 87//29
f 88//30 89//30 90//30
f 91//31 92//31 93//31
f 94//32 95//32 96//32
f 97//33 98//33 99//33
f 100//34 101//34 102//34
f 103//35 104//35 105//35
f 106//36 107//36 108//36
f 109//37 110//37 111//37
f 112//38 113//38 114//38
f 115//39 116//39 117//39
f 118//40 119//40 120//40
f 121//41 122//41 123//41
f 124//42 125//42 126//42
f 127//43 128//43 129//43
f 130//44 131//44 132//44
f 133//45 134//45 135//45
f 136//46 137//46 138//46
f 139//47 140//47 141//47
f 142//48 143//48 144//48
f 145//49 146//49 147//49
f 148//50 149//50 150//50
f 151//51 152//51 153//51
f 154//52 155//52 156//52
f 157//53 158//53 159//53
f 160//54 161//54 162//54
f 163//55 164//55 165//55
f 166//56 167//56 168//56
f 169//57 170//57 171//57
f 172//58 173//58 174//58
f 175//59 176//59 177//59
f 178//60 179//60 180//60
f 181//61 182//61 183//61
f 184//62 185//62 186//62
f 187//63 188//63 189//63
f 190//64 191//64 192//64
f 193//65 194//65 195//65
f 196//66 197//66 198//66
f 199//67 200//67 201//67
f 202//68 203//68 204//68
f 205//69 206//69 207//69
f 208//70 209//70 210//70
f 211//71 212//71 213//71
f 214//72 215//72 216//72
f 217//73 218//73 219//73
f 220//74 221//74 222//74
f 223//75 224//75 225//75
f 226//76 227//76 228//76
f 229//77 230//77 231//77
f 232//78 233//78 234//78
f 235//79 236//79 237//79
f 238//80 239//80 240//80
f 241//81 242//81 243//81
f 244//82 245//82 246//82
f 247//83 248//83 249//83
f 250//84 251//84 252//84
f 253//85 254//85 255//85
f 256//86 257//86 258//86
f 259//87 260//87 261//87
f 262//88 263//88 264//88
f 265//89 266//89 267//89
f 268//90 269//90 270//90
f 271//91 272//91 273//91
f 274//92 275//92 276//92
f 277//93 278//93 279//93
f 280//94 281//94 282//94
f 283//95 284//95 285//95
f 286//96 287//96 288//96
f 289//97 290//97 291//97
f 292//98 293//98 294//98
f 295//99 296//99 297//99
f 298//100 299//100 300//100
f 301//101 302//101 303//101
f 304//102 305//102 306//102
f 307//103 308//103 309//103
f 310//104 311//104 312//104
f 313//105 314//105 315//105
f 316//106 317//106 318//106
f 319//107 320//107 321//107
f 322//108 323//108 324//108
f 325//109 326//109 327//109
f 328//110 329//110 330//110
f 331//111 332//111 333//111
f 334//112 335//112 336//112
f 337//113 338//113 339//113
f 340//114 341//114 342//114
f 343//115 344//115 345//115
f 346//116 347//116 348//116
f 349//117 350//117 351//117
f 351//117 352//117 349//117
