# Blender 4.0.2
# www.blender.org
mtllib L_HAND_THUMB_mesh.mtl
o L_WRIST_R_LINK
v 0.058564 0.006800 0.107695
v 0.060581 0.007600 0.107764
v 0.061159 0.007300 0.106151
v 0.061159 0.007300 0.106151
v 0.059040 0.005800 0.106365
v 0.058564 0.006800 0.107695
v 0.067402 0.001400 0.118349
v 0.067539 0.001700 0.133261
v 0.067255 -0.001800 0.123249
v 0.046632 0.009000 0.153333
v 0.042958 0.010700 0.157049
v 0.040649 0.018300 0.160895
v 0.065104 -0.002700 0.106770
v 0.065454 -0.003700 0.108204
v 0.062891 -0.003500 0.106930
v 0.061159 0.007300 0.106151
v 0.066346 0.005300 0.104927
v 0.064898 0.004000 0.104269
v 0.060581 0.007600 0.107764
v 0.058564 0.006800 0.107695
v 0.059384 0.009700 0.127267
v 0.058365 0.005100 0.106367
v 0.057402 0.005800 0.107740
v 0.057613 0.006000 0.107615
v 0.058564 0.006800 0.107695
v 0.057890 0.006300 0.107644
v 0.054346 0.008400 0.121165
v 0.058365 0.005100 0.106367
v 0.059258 0.004000 0.105509
v 0.056890 0.003200 0.107385
v 0.057613 0.006000 0.107615
v 0.051909 0.006100 0.120475
v 0.054346 0.008400 0.121165
v 0.054346 0.008400 0.121165
v 0.057890 0.006300 0.107644
v 0.057613 0.006000 0.107615
v 0.057613 0.006000 0.107615
v 0.057402 0.005800 0.107740
v 0.051909 0.006100 0.120475
v 0.058365 0.005100 0.106367
v 0.057613 0.006000 0.107615
v 0.057890 0.006300 0.107644
v 0.057890 0.006300 0.107644
v 0.059040 0.005800 0.106365
v 0.058365 0.005100 0.106367
v 0.061159 0.007300 0.106151
v 0.061545 0.006500 0.105388
v 0.060397 0.005200 0.105431
v 0.060397 0.005200 0.105431
v 0.059040 0.005800 0.106365
v 0.061159 0.007300 0.106151
v 0.068083 0.001300 0.105984
v 0.066968 -0.000700 0.106586
v 0.067057 -0.000300 0.105960
v 0.067539 0.001700 0.133261
v 0.064936 0.001200 0.159514
v 0.064947 -0.003700 0.159883
v 0.066968 -0.000700 0.106586
v 0.067318 -0.001100 0.108744
v 0.066811 -0.002300 0.108709
v 0.066811 -0.002300 0.108709
v 0.066042 -0.001700 0.106687
v 0.066968 -0.000700 0.106586
v 0.068083 0.001300 0.105984
v 0.068179 0.001000 0.108491
v 0.067318 -0.001100 0.108744
v 0.067318 -0.001100 0.108744
v 0.066968 -0.000700 0.106586
v 0.068083 0.001300 0.105984
v 0.066593 0.005700 0.107365
v 0.066346 0.005300 0.104927
v 0.061159 0.007300 0.106151
v 0.061159 0.007300 0.106151
v 0.060581 0.007600 0.107764
v 0.066593 0.005700 0.107365
v 0.059040 0.005800 0.106365
v 0.060397 0.005200 0.105431
v 0.059258 0.004000 0.105509
v 0.059258 0.004000 0.105509
v 0.058365 0.005100 0.106367
v 0.059040 0.005800 0.106365
v 0.061545 0.006500 0.105388
v 0.064898 0.004000 0.104269
v 0.063584 0.002800 0.104307
v 0.063584 0.002800 0.104307
v 0.060397 0.005200 0.105431
v 0.061545 0.006500 0.105388
v 0.066346 0.005300 0.104927
v 0.068083 0.001300 0.105984
v 0.066833 0.000500 0.105274
v 0.066833 0.000500 0.105274
v 0.064898 0.004000 0.104269
v 0.066346 0.005300 0.104927
v 0.065104 -0.002700 0.106770
v 0.066042 -0.001700 0.106687
v 0.065948 -0.003300 0.108316
v 0.065948 -0.003300 0.108316
v 0.065454 -0.003700 0.108204
v 0.065104 -0.002700 0.106770
v 0.067318 -0.001100 0.108744
v 0.067255 -0.001800 0.123249
v 0.066946 -0.003800 0.123495
v 0.066946 -0.003800 0.123495
v 0.066811 -0.002300 0.108709
v 0.067318 -0.001100 0.108744
v 0.066346 0.005300 0.104927
v 0.066593 0.005700 0.107365
v 0.068179 0.001000 0.108491
v 0.068179 0.001000 0.108491
v 0.068083 0.001300 0.105984
v 0.066346 0.005300 0.104927
v 0.060581 0.007600 0.107764
v 0.061618 0.008300 0.117795
v 0.066122 0.006000 0.118379
v 0.066122 0.006000 0.118379
v 0.066593 0.005700 0.107365
v 0.060581 0.007600 0.107764
v 0.060397 0.005200 0.105431
v 0.063584 0.002800 0.104307
v 0.061978 0.001300 0.104430
v 0.061978 0.001300 0.104430
v 0.059258 0.004000 0.105509
v 0.060397 0.005200 0.105431
v 0.064898 0.004000 0.104269
v 0.066833 0.000500 0.105274
v 0.065679 -0.000300 0.105367
v 0.065679 -0.000300 0.105367
v 0.063584 0.002800 0.104307
v 0.064898 0.004000 0.104269
v 0.065679 -0.000300 0.105367
v 0.066042 -0.001700 0.106687
v 0.065104 -0.002700 0.106770
v 0.065104 -0.002700 0.106770
v 0.064277 -0.001500 0.105442
v 0.065679 -0.000300 0.105367
v 0.063671 -0.007400 0.122626
v 0.066946 -0.003800 0.123495
v 0.062848 -0.007000 0.160137
v 0.062848 -0.007000 0.160137
v 0.055970 -0.010100 0.157874
v 0.063671 -0.007400 0.122626
v 0.066946 -0.003800 0.123495
v 0.067255 -0.001800 0.123249
v 0.064947 -0.003700 0.159883
v 0.064947 -0.003700 0.159883
v 0.062848 -0.007000 0.160137
v 0.066946 -0.003800 0.123495
v 0.066593 0.005700 0.107365
v 0.066122 0.006000 0.118379
v 0.067402 0.001400 0.118349
v 0.067402 0.001400 0.118349
v 0.068179 0.001000 0.108491
v 0.066593 0.005700 0.107365
v 0.066122 0.006000 0.118379
v 0.061618 0.008300 0.117795
v 0.059384 0.009700 0.127267
v 0.059384 0.009700 0.127267
v 0.065231 0.007500 0.132956
v 0.066122 0.006000 0.118379
v 0.046632 0.009000 0.153333
v 0.053666 0.011500 0.155712
v 0.059384 0.009700 0.127267
v 0.059384 0.009700 0.127267
v 0.054346 0.008400 0.121165
v 0.046632 0.009000 0.153333
v 0.047653 -0.005400 0.150550
v 0.051650 -0.009700 0.155801
v 0.041050 -0.016200 0.166523
v 0.041050 -0.016200 0.166523
v 0.039870 -0.010800 0.156472
v 0.047653 -0.005400 0.150550
v 0.063584 0.002800 0.104307
v 0.065679 -0.000300 0.105367
v 0.064277 -0.001500 0.105442
v 0.064277 -0.001500 0.105442
v 0.061978 0.001300 0.104430
v 0.063584 0.002800 0.104307
v 0.059277 -0.008000 0.121457
v 0.063671 -0.007400 0.122626
v 0.055970 -0.010100 0.157874
v 0.055970 -0.010100 0.157874
v 0.051650 -0.009700 0.155801
v 0.059277 -0.008000 0.121457
v 0.063671 -0.007400 0.122626
v 0.065454 -0.003700 0.108204
v 0.065948 -0.003300 0.108316
v 0.065948 -0.003300 0.108316
v 0.066946 -0.003800 0.123495
v 0.063671 -0.007400 0.122626
v 0.064947 -0.003700 0.159883
v 0.058843 -0.005200 0.182057
v 0.055064 -0.012100 0.177825
v 0.055064 -0.012100 0.177825
v 0.062848 -0.007000 0.160137
v 0.064947 -0.003700 0.159883
v 0.067539 0.001700 0.133261
v 0.067402 0.001400 0.118349
v 0.066122 0.006000 0.118379
v 0.066122 0.006000 0.118379
v 0.065231 0.007500 0.132956
v 0.067539 0.001700 0.133261
v 0.061053 0.007600 0.158276
v 0.065231 0.007500 0.132956
v 0.059384 0.009700 0.127267
v 0.059384 0.009700 0.127267
v 0.053666 0.011500 0.155712
v 0.061053 0.007600 0.158276
v 0.066833 0.000500 0.105274
v 0.067057 -0.000300 0.105960
v 0.066042 -0.001700 0.106687
v 0.067057 -0.000300 0.105960
v 0.066968 -0.000700 0.106586
v 0.066042 -0.001700 0.106687
v 0.053287 -0.004700 0.120056
v 0.059277 -0.008000 0.121457
v 0.051650 -0.009700 0.155801
v 0.051650 -0.009700 0.155801
v 0.047653 -0.005400 0.150550
v 0.053287 -0.004700 0.120056
v 0.061978 0.001300 0.104430
v 0.064277 -0.001500 0.105442
v 0.062891 -0.003500 0.106930
v 0.062891 -0.003500 0.106930
v 0.059389 -0.000600 0.106055
v 0.061978 0.001300 0.104430
v 0.065454 -0.003700 0.108204
v 0.063671 -0.007400 0.122626
v 0.059277 -0.008000 0.121457
v 0.059277 -0.008000 0.121457
v 0.062891 -0.003500 0.106930
v 0.065454 -0.003700 0.108204
v 0.058843 -0.005200 0.182057
v 0.053518 -0.006700 0.190336
v 0.047304 -0.015500 0.186543
v 0.047304 -0.015500 0.186543
v 0.055064 -0.012100 0.177825
v 0.058843 -0.005200 0.182057
v 0.055319 0.001300 0.190679
v 0.046459 -0.002700 0.200467
v 0.047283 -0.008700 0.197950
v 0.047283 -0.008700 0.197950
v 0.053518 -0.006700 0.190336
v 0.055319 0.001300 0.190679
v 0.064936 0.001200 0.159514
v 0.059588 0.000600 0.182104
v 0.058843 -0.005200 0.182057
v 0.058843 -0.005200 0.182057
v 0.064947 -0.003700 0.159883
v 0.064936 0.001200 0.159514
v 0.056890 0.003200 0.107385
v 0.051053 0.002800 0.120024
v 0.051909 0.006100 0.120475
v 0.051909 0.006100 0.120475
v 0.057402 0.005800 0.107740
v 0.056890 0.003200 0.107385
v 0.065231 0.007500 0.132956
v 0.061053 0.007600 0.158276
v 0.064936 0.001200 0.159514
v 0.064936 0.001200 0.159514
v 0.067539 0.001700 0.133261
v 0.065231 0.007500 0.132956
v 0.053666 0.011500 0.155712
v 0.049426 0.014200 0.167491
v 0.055457 0.009600 0.179356
v 0.055457 0.009600 0.179356
v 0.061053 0.007600 0.158276
v 0.053666 0.011500 0.155712
v 0.059258 0.004000 0.105509
v 0.061978 0.001300 0.104430
v 0.059389 -0.000600 0.106055
v 0.059389 -0.000600 0.106055
v 0.056890 0.003200 0.107385
v 0.059258 0.004000 0.105509
v 0.053287 -0.004700 0.120056
v 0.059389 -0.000600 0.106055
v 0.062891 -0.003500 0.106930
v 0.062891 -0.003500 0.106930
v 0.059277 -0.008000 0.121457
v 0.053287 -0.004700 0.120056
v 0.055970 -0.010100 0.157874
v 0.062848 -0.007000 0.160137
v 0.055064 -0.012100 0.177825
v 0.055064 -0.012100 0.177825
v 0.051525 -0.014300 0.170108
v 0.055970 -0.010100 0.157874
v 0.059588 0.000600 0.182104
v 0.055319 0.001300 0.190679
v 0.053518 -0.006700 0.190336
v 0.053518 -0.006700 0.190336
v 0.058843 -0.005200 0.182057
v 0.059588 0.000600 0.182104
v 0.061053 0.007600 0.158276
v 0.055457 0.009600 0.179356
v 0.059588 0.000600 0.182104
v 0.059588 0.000600 0.182104
v 0.064936 0.001200 0.159514
v 0.061053 0.007600 0.158276
v 0.049426 0.014200 0.167491
v 0.042437 0.020200 0.184589
v 0.051000 0.012600 0.188216
v 0.051000 0.012600 0.188216
v 0.055457 0.009600 0.179356
v 0.049426 0.014200 0.167491
v 0.051053 0.002800 0.120024
v 0.056890 0.003200 0.107385
v 0.059389 -0.000600 0.106055
v 0.059389 -0.000600 0.106055
v 0.053287 -0.004700 0.120056
v 0.051053 0.002800 0.120024
v 0.043831 -0.017600 0.175843
v 0.051525 -0.014300 0.170108
v 0.055064 -0.012100 0.177825
v 0.055064 -0.012100 0.177825
v 0.047304 -0.015500 0.186543
v 0.043831 -0.017600 0.175843
v 0.055457 0.009600 0.179356
v 0.051000 0.012600 0.188216
v 0.055319 0.001300 0.190679
v 0.055319 0.001300 0.190679
v 0.059588 0.000600 0.182104
v 0.055457 0.009600 0.179356
v 0.042809 0.015500 0.199279
v 0.051000 0.012600 0.188216
v 0.042437 0.020200 0.184589
v 0.051053 0.002800 0.120024
v 0.053287 -0.004700 0.120056
v 0.047653 -0.005400 0.150550
v 0.047653 -0.005400 0.150550
v 0.045098 0.000800 0.151291
v 0.051053 0.002800 0.120024
v 0.051000 0.012600 0.188216
v 0.042809 0.015500 0.199279
v 0.045213 0.003400 0.202559
v 0.045213 0.003400 0.202559
v 0.055319 0.001300 0.190679
v 0.051000 0.012600 0.188216
v 0.051909 0.006100 0.120475
v 0.051053 0.002800 0.120024
v 0.045098 0.000800 0.151291
v 0.045098 0.000800 0.151291
v 0.045771 0.005700 0.151904
v 0.051909 0.006100 0.120475
v 0.054346 0.008400 0.121165
v 0.051909 0.006100 0.120475
v 0.045771 0.005700 0.151904
v 0.045771 0.005700 0.151904
v 0.046632 0.009000 0.153333
v 0.054346 0.008400 0.121165
v 0.045771 0.005700 0.151904
v 0.045098 0.000800 0.151291
v 0.041796 0.000000 0.153658
v 0.041796 0.000000 0.153658
v 0.042739 0.005900 0.154320
v 0.045771 0.005700 0.151904
v 0.068179 0.001000 0.108491
v 0.067402 0.001400 0.118349
v 0.067029 -0.001200 0.114320
v 0.046632 0.009000 0.153333
v 0.045771 0.005700 0.151904
v 0.042739 0.005900 0.154320
v 0.042739 0.005900 0.154320
v 0.042958 0.010700 0.157049
v 0.046632 0.009000 0.153333
v 0.045098 0.000800 0.151291
v 0.047653 -0.005400 0.150550
v 0.039870 -0.010800 0.156472
v 0.066042 -0.001700 0.106687
v 0.066811 -0.002300 0.108709
v 0.065948 -0.003300 0.108316
v 0.055970 -0.010100 0.157874
v 0.051525 -0.014300 0.170108
v 0.051650 -0.009700 0.155801
v 0.067318 -0.001100 0.108744
v 0.067029 -0.001200 0.114320
v 0.067255 -0.001800 0.123249
v 0.042437 0.020200 0.184589
v 0.049426 0.014200 0.167491
v 0.040740 0.019800 0.166920
v 0.049426 0.014200 0.167491
v 0.053666 0.011500 0.155712
v 0.040649 0.018300 0.160895
v 0.040649 0.018300 0.160895
v 0.040740 0.019800 0.166920
v 0.049426 0.014200 0.167491
v 0.051650 -0.009700 0.155801
v 0.051525 -0.014300 0.170108
v 0.043831 -0.017600 0.175843
v 0.055319 0.001300 0.190679
v 0.045213 0.003400 0.202559
v 0.046459 -0.002700 0.200467
v 0.053518 -0.006700 0.190336
v 0.047283 -0.008700 0.197950
v 0.047304 -0.015500 0.186543
v 0.064947 -0.003700 0.159883
v 0.067255 -0.001800 0.123249
v 0.067539 0.001700 0.133261
v 0.039870 -0.010800 0.156472
v 0.041796 0.000000 0.153658
v 0.045098 0.000800 0.151291
v 0.040649 0.018300 0.160895
v 0.053666 0.011500 0.155712
v 0.046632 0.009000 0.153333
v 0.043831 -0.017600 0.175843
v 0.041050 -0.016200 0.166523
v 0.051650 -0.009700 0.155801
v 0.066946 -0.003800 0.123495
v 0.065948 -0.003300 0.108316
v 0.066811 -0.002300 0.108709
v 0.067029 -0.001200 0.114320
v 0.067318 -0.001100 0.108744
v 0.068179 0.001000 0.108491
v 0.066042 -0.001700 0.106687
v 0.065679 -0.000300 0.105367
v 0.066833 0.000500 0.105274
v 0.067057 -0.000300 0.105960
v 0.066833 0.000500 0.105274
v 0.068083 0.001300 0.105984
v 0.056890 0.003200 0.107385
v 0.057402 0.005800 0.107740
v 0.058365 0.005100 0.106367
v 0.054346 0.008400 0.121165
v 0.059384 0.009700 0.127267
v 0.058564 0.006800 0.107695
v 0.057890 0.006300 0.107644
v 0.058564 0.006800 0.107695
v 0.059040 0.005800 0.106365
v 0.059384 0.009700 0.127267
v 0.061618 0.008300 0.117795
v 0.060581 0.007600 0.107764
v 0.064898 0.004000 0.104269
v 0.061545 0.006500 0.105388
v 0.061159 0.007300 0.106151
v 0.062891 -0.003500 0.106930
v 0.064277 -0.001500 0.105442
v 0.065104 -0.002700 0.106770
v 0.067255 -0.001800 0.123249
v 0.067029 -0.001200 0.114320
v 0.067402 0.001400 0.118349
vn -0.3443 0.8931 -0.2895
vn -0.4905 0.6031 -0.6290
vn 0.9983 -0.0581 -0.0080
vn -0.6611 0.1691 -0.7310
vn 0.2352 -0.7694 -0.5939
vn -0.0251 0.4736 -0.8804
vn -0.3623 0.9241 -0.1217
vn -0.6893 0.3232 -0.6484
vn -0.5607 0.7832 -0.2686
vn -0.6358 0.0824 -0.7674
vn -0.6161 0.7366 -0.2790
vn -0.6905 0.6651 -0.2843
vn -0.7445 0.5777 -0.3347
vn -0.5021 0.5291 -0.6841
vn -0.5017 0.5294 -0.6841
vn -0.5309 0.5100 -0.6768
vn -0.5259 0.4403 -0.7277
vn -0.3808 0.4208 -0.8234
vn -0.3808 0.4205 -0.8235
vn 0.8230 -0.5245 -0.2181
vn 0.9951 0.0097 0.0988
vn 0.9017 -0.3747 -0.2157
vn 0.6396 -0.6359 -0.4319
vn 0.6397 -0.6360 -0.4316
vn 0.9187 -0.3865 -0.0814
vn 0.8188 -0.5258 -0.2303
vn 0.3153 0.9308 -0.1847
vn 0.2963 0.9525 -0.0710
vn -0.4228 0.3469 -0.8372
vn -0.3762 0.3604 -0.8536
vn -0.1900 0.1774 -0.9656
vn -0.2183 0.1609 -0.9625
vn 0.4996 -0.0119 -0.8662
vn 0.4297 -0.0217 -0.9027
vn 0.5854 -0.5952 -0.5504
vn 0.5974 -0.5818 -0.5519
vn 0.9882 -0.1531 -0.0031
vn 0.9206 -0.3876 -0.0477
vn 0.9477 0.2856 -0.1429
vn 0.9159 0.4012 0.0129
vn 0.4633 0.8795 -0.1093
vn 0.3005 0.9537 -0.0131
vn -0.2208 0.1575 -0.9625
vn -0.2283 0.1542 -0.9613
vn 0.0830 -0.2324 -0.9691
vn 0.1686 -0.2150 -0.9620
vn 0.4970 -0.5236 -0.6920
vn 0.4152 -0.5312 -0.7385
vn 0.7367 -0.6758 0.0234
vn 0.4057 -0.9138 0.0186
vn 0.9878 -0.1459 0.0547
vn 0.8445 -0.5335 0.0479
vn 0.9629 0.2677 0.0339
vn 0.9413 0.3322 0.0607
vn 0.4571 0.8891 -0.0236
vn 0.4091 0.9099 -0.0686
vn -0.2964 0.9476 -0.1195
vn -0.1792 0.9819 -0.0613
vn -0.0979 -0.8052 -0.5849
vn 0.2218 -0.8479 -0.4816
vn 0.1458 -0.2305 -0.9621
vn 0.1422 -0.2311 -0.9625
vn 0.1466 -0.9882 -0.0437
vn -0.0620 -0.9961 -0.0631
vn 0.6413 -0.7586 -0.1154
vn 0.6414 -0.7585 -0.1153
vn 0.6413 -0.7585 -0.1153
vn 0.7463 -0.6618 -0.0709
vn 0.8096 -0.5570 0.1852
vn 0.8310 -0.5118 0.2181
vn 0.9633 0.2681 -0.0142
vn 0.9632 0.2684 -0.0143
vn 0.9286 0.3705 0.0186
vn 0.3109 0.9493 0.0476
vn 0.4569 0.8888 0.0356
vn 0.2584 -0.5861 -0.7679
vn 0.6774 -0.6600 -0.3250
vn -0.4515 -0.8806 -0.1439
vn -0.6379 -0.7581 -0.1353
vn -0.2145 -0.4830 -0.8490
vn -0.1845 -0.4814 -0.8569
vn 0.1896 -0.9564 -0.2219
vn 0.0647 -0.9577 -0.2805
vn 0.6967 -0.6355 0.3330
vn 0.6939 -0.6124 0.3788
vn 0.7633 -0.1579 0.6264
vn 0.7831 -0.2015 0.5883
vn 0.9661 -0.1259 0.2254
vn 0.9635 0.0223 0.2667
vn -0.8747 0.2809 -0.3951
vn -0.8919 0.2289 -0.3901
vn 0.8352 0.5330 0.1357
vn 0.9228 0.3724 0.0986
vn 0.5791 0.8150 0.0216
vn 0.4565 0.8889 0.0369
vn -0.4647 -0.1174 -0.8777
vn -0.5937 -0.1115 -0.7969
vn -0.5059 -0.7431 -0.4381
vn -0.3845 -0.8504 -0.3591
vn 0.4291 -0.9005 -0.0708
vn 0.6065 -0.7934 -0.0520
vn 0.8673 -0.2145 0.4493
vn 0.8449 -0.1128 0.5230
vn 0.8697 0.4565 0.1876
vn 0.8179 0.5365 0.2079
vn 0.6620 0.7495 0.0076
vn 0.5832 0.8121 0.0184
vn -0.8252 -0.4048 -0.3939
vn -0.8561 -0.2569 -0.4484
vn 0.4305 -0.9006 0.0593
vn 0.4344 -0.9000 0.0356
vn 0.8668 0.3971 0.3016
vn 0.8014 0.4777 0.3600
vn 0.5885 0.7742 0.2328
vn -0.9424 -0.2815 -0.1806
vn -0.9146 -0.3534 -0.1968
vn 0.8027 0.2993 0.5158
vn 0.7318 0.4000 0.5518
vn -0.9493 0.2686 -0.1636
vn -0.9697 0.1566 -0.1874
vn -0.6632 0.7387 -0.1201
vn -0.9144 0.3362 -0.2255
vn -0.6015 0.1800 -0.7783
vn -0.6051 0.1836 -0.7746
vn 0.9585 -0.2717 0.0866
vn -0.5385 0.4492 -0.7129
vn -0.5318 0.4368 -0.7256
vn -0.5443 -0.1252 -0.8295
vn 0.7596 -0.4854 -0.4329
vn 0.0584 -0.9505 -0.3051
vn 0.5377 0.8420 0.0430
vn 0.5438 0.8362 -0.0712
vn 0.4491 0.8924 -0.0429
vn 0.5394 0.8151 -0.2111
vn 0.1785 -0.9372 -0.2998
vn 0.7537 -0.0702 0.6535
vn 0.6698 -0.6373 0.3811
vn 0.9739 -0.2216 0.0499
vn -0.5605 -0.1138 -0.8203
vn 0.0307 0.6424 -0.7658
vn 0.3247 -0.9163 -0.2345
vn 0.7689 -0.6354 -0.0715
vn 0.9262 -0.3748 0.0413
vn 0.3521 -0.5921 -0.7248
vn 0.6318 -0.3946 -0.6671
vn -0.7369 0.2318 -0.6350
vn -0.0816 0.9864 -0.1427
vn -0.4282 0.6420 -0.6360
vn 0.2232 0.9705 -0.0908
vn 0.2229 0.9706 -0.0908
vn 0.3470 0.7294 -0.5896
vn 0.3471 0.7294 -0.5895
vn 0.1891 -0.6671 -0.7206
vn 0.9951 -0.0939 -0.0315
s 0
usemtl blinn20.001
f 1//1 2//1 3//1
f 4//2 5//2 6//2
f 7//3 8//3 9//3
f 10//4 11//4 12//4
f 13//5 14//5 15//5
f 16//6 17//6 18//6
f 19//7 20//7 21//7
f 22//8 23//8 24//8
f 25//9 26//9 27//9
f 28//10 29//10 30//10
f 31//11 32//11 33//11
f 34//12 35//12 36//12
f 37//13 38//13 39//13
f 40//14 41//15 42//14
f 43//16 44//16 45//16
f 46//17 47//17 48//17
f 49//18 50//19 51//18
f 52//20 53//20 54//20
f 55//21 56//21 57//21
f 58//22 59//22 60//22
f 61//23 62//24 63//23
f 64//25 65//25 66//25
f 67//26 68//26 69//26
f 70//27 71//27 72//27
f 73//28 74//28 75//28
f 76//29 77//29 78//29
f 79//30 80//30 81//30
f 82//31 83//31 84//31
f 85//32 86//32 87//32
f 88//33 89//33 90//33
f 91//34 92//34 93//34
f 94//35 95//35 96//35
f 97//36 98//36 99//36
f 100//37 101//37 102//37
f 103//38 104//38 105//38
f 106//39 107//39 108//39
f 109//40 110//40 111//40
f 112//41 113//41 114//41
f 115//42 116//42 117//42
f 118//43 119//43 120//43
f 121//44 122//44 123//44
f 124//45 125//45 126//45
f 127//46 128//46 129//46
f 130//47 131//47 132//47
f 133//48 134//48 135//48
f 136//49 137//49 138//49
f 139//50 140//50 141//50
f 142//51 143//51 144//51
f 145//52 146//52 147//52
f 148//53 149//53 150//53
f 151//54 152//54 153//54
f 154//55 155//55 156//55
f 157//56 158//56 159//56
f 160//57 161//57 162//57
f 163//58 164//58 165//58
f 166//59 167//59 168//59
f 169//60 170//60 171//60
f 172//61 173//61 174//61
f 175//62 176//62 177//62
f 178//63 179//63 180//63
f 181//64 182//64 183//64
f 184//65 185//66 186//67
f 187//68 188//68 189//68
f 190//69 191//69 192//69
f 193//70 194//70 195//70
f 196//71 197//72 198//71
f 199//73 200//73 201//73
f 202//74 203//74 204//74
f 205//75 206//75 207//75
f 208//76 209//76 210//76
f 211//77 212//77 213//77
f 214//78 215//78 216//78
f 217//79 218//79 219//79
f 220//80 221//80 222//80
f 223//81 224//81 225//81
f 226//82 227//82 228//82
f 229//83 230//83 231//83
f 232//84 233//84 234//84
f 235//85 236//85 237//85
f 238//86 239//86 240//86
f 241//87 242//87 243//87
f 244//88 245//88 246//88
f 247//89 248//89 249//89
f 250//90 251//90 252//90
f 253//91 254//91 255//91
f 256//92 257//92 258//92
f 259//93 260//93 261//93
f 262//94 263//94 264//94
f 265//95 266//95 267//95
f 268//96 269//96 270//96
f 271//97 272//97 273//97
f 274//98 275//98 276//98
f 277//99 278//99 279//99
f 280//100 281//100 282//100
f 283//101 284//101 285//101
f 286//102 287//102 288//102
f 289//103 290//103 291//103
f 292//104 293//104 294//104
f 295//105 296//105 297//105
f 298//106 299//106 300//106
f 301//107 302//107 303//107
f 304//108 305//108 306//108
f 307//109 308//109 309//109
f 310//110 311//110 312//110
f 313//111 314//111 315//111
f 316//112 317//112 318//112
f 319//113 320//113 321//113
f 322//114 323//114 324//114
f 325//115 326//115 327//115
f 328//116 329//116 330//116
f 331//117 332//117 333//117
f 334//118 335//118 336//118
f 337//119 338//119 339//119
f 340//120 341//120 342//120
f 343//121 344//121 345//121
f 346//122 347//122 348//122
f 349//123 350//123 351//123
f 352//124 353//124 354//124
f 355//125 356//125 357//125
f 358//126 359//126 360//126
f 361//127 362//127 363//127
f 364//128 365//128 366//128
f 367//129 368//129 369//129
f 370//130 371//130 372//130
f 373//131 374//131 375//131
f 376//132 377//132 378//132
f 379//133 380//133 381//133
f 382//134 383//134 384//134
f 385//135 386//135 387//135
f 388//136 389//136 390//136
f 391//137 392//137 393//137
f 394//138 395//138 396//138
f 397//139 398//139 399//139
f 400//140 401//140 402//140
f 403//141 404//141 405//141
f 406//142 407//142 408//142
f 409//143 410//143 411//143
f 412//144 413//144 414//144
f 415//145 416//145 417//145
f 418//146 419//146 420//146
f 421//147 422//147 423//147
f 424//148 425//148 426//148
f 427//149 428//150 429//149
f 430//151 431//152 432//151
f 433//153 434//153 435//153
f 436//154 437//154 438//154
