# Blender 4.0.2
# www.blender.org
mtllib L_HAND_J0_LINK_mesh.mtl
o L_HAND_J0_LINK
v -0.005000 -0.008350 -0.002400
v -0.005000 -0.008350 0.052600
v -0.005000 -0.000850 0.052600
v -0.005000 -0.000850 -0.002400
v -0.005000 -0.000850 -0.002400
v -0.005000 -0.000850 0.052600
v 0.015000 -0.000850 0.052600
v 0.015000 -0.000850 -0.002400
v 0.015000 -0.000850 0.052600
v -0.005000 -0.000850 0.052600
v -0.005000 -0.008350 0.052600
v 0.015000 -0.008350 0.052600
v -0.005000 -0.008350 0.052600
v -0.005000 -0.008350 -0.002400
v 0.015000 -0.008350 0.052600
v 0.015000 -0.008350 -0.002400
v 0.015000 -0.008350 0.052600
v 0.015000 -0.008350 -0.002400
v 0.015000 -0.000850 0.052600
v 0.015000 -0.000850 -0.002400
v 0.015000 -0.000850 -0.002400
v 0.015000 -0.008350 -0.002400
v -0.005000 -0.008350 -0.002400
v -0.005000 -0.000850 -0.002400
vn -1.0000 -0.0000 -0.0000
vn -0.0000 1.0000 -0.0000
vn -0.0000 -0.0000 1.0000
vn -0.0000 -1.0000 -0.0000
vn 1.0000 -0.0000 -0.0000
vn -0.0000 -0.0000 -1.0000
s 0
usemtl blinn20.011
f 1//1 2//1 3//1
f 3//1 4//1 1//1
f 5//2 6//2 7//2
f 5//2 7//2 8//2
f 9//3 10//3 11//3
f 11//3 12//3 9//3
f 13//4 14//4 15//4
f 15//4 14//4 16//4
f 17//5 18//5 19//5
f 19//5 18//5 20//5
f 21//6 22//6 23//6
f 23//6 24//6 21//6
