# Blender 4.0.2
# www.blender.org
mtllib NECK_Y_LINK_mesh.mtl
o NECK_Y_LINK
v 0.040000 0.000024 -0.454000
v 0.082797 -0.013882 -0.453989
v 0.085000 0.000024 -0.454000
v 0.085000 0.000024 -0.454000
v 0.082797 -0.013930 -0.513989
v 0.085000 -0.000024 -0.514000
v 0.082797 -0.013882 -0.453989
v 0.040000 -0.000024 -0.514000
v 0.085000 -0.000024 -0.514000
v 0.082797 -0.013930 -0.513989
v 0.076406 -0.026426 -0.453979
v 0.082797 -0.013882 -0.453989
v 0.076406 -0.026474 -0.513979
v 0.082797 -0.013930 -0.513989
v 0.076406 -0.026426 -0.453979
v 0.076406 -0.026474 -0.513979
v 0.066450 -0.036382 -0.453971
v 0.076406 -0.026426 -0.453979
v 0.066450 -0.036430 -0.513971
v 0.076406 -0.026474 -0.513979
v 0.066450 -0.036382 -0.453971
v 0.040000 -0.000024 -0.514000
v 0.076406 -0.026474 -0.513979
v 0.066450 -0.036430 -0.513971
v 0.053906 -0.042774 -0.453966
v 0.066450 -0.036382 -0.453971
v 0.066450 -0.036382 -0.453971
v 0.053906 -0.042821 -0.513966
v 0.066450 -0.036430 -0.513971
v 0.053906 -0.042774 -0.453966
v 0.066450 -0.036430 -0.513971
v 0.053906 -0.042821 -0.513966
v 0.040000 0.000024 -0.454000
v 0.040000 -0.044976 -0.453964
v 0.053906 -0.042774 -0.453966
v 0.053906 -0.042774 -0.453966
v 0.040000 -0.045024 -0.513964
v 0.053906 -0.042821 -0.513966
v 0.040000 -0.044976 -0.453964
v 0.040000 -0.000024 -0.514000
v 0.053906 -0.042821 -0.513966
v 0.040000 -0.045024 -0.513964
v 0.040000 0.000024 -0.454000
v 0.026094 -0.042774 -0.453966
v 0.040000 -0.044976 -0.453964
v 0.040000 -0.044976 -0.453964
v 0.026094 -0.042821 -0.513966
v 0.040000 -0.045024 -0.513964
v 0.026094 -0.042774 -0.453966
v 0.040000 -0.000024 -0.514000
v 0.040000 -0.045024 -0.513964
v 0.026094 -0.042821 -0.513966
v 0.013550 -0.036382 -0.453971
v 0.026094 -0.042774 -0.453966
v 0.026094 -0.042774 -0.453966
v 0.013550 -0.036430 -0.513971
v 0.026094 -0.042821 -0.513966
v 0.013550 -0.036382 -0.453971
v 0.026094 -0.042821 -0.513966
v 0.013550 -0.036430 -0.513971
v 0.003594 -0.026426 -0.453979
v 0.013550 -0.036382 -0.453971
v 0.013550 -0.036382 -0.453971
v 0.003594 -0.026474 -0.513979
v 0.013550 -0.036430 -0.513971
v 0.003594 -0.026426 -0.453979
v 0.040000 -0.000024 -0.514000
v 0.013550 -0.036430 -0.513971
v 0.003594 -0.026474 -0.513979
v -0.002798 -0.013882 -0.453989
v 0.003594 -0.026426 -0.453979
v -0.002798 -0.013930 -0.513989
v 0.003594 -0.026474 -0.513979
v -0.002798 -0.013882 -0.453989
v 0.003594 -0.026474 -0.513979
v -0.002798 -0.013930 -0.513989
v -0.005000 0.000024 -0.454000
v -0.002798 -0.013882 -0.453989
v -0.005000 -0.000024 -0.514000
v -0.002798 -0.013930 -0.513989
v -0.005000 0.000024 -0.454000
v -0.005000 -0.000024 -0.514000
v -0.002798 0.013930 -0.454011
v -0.005000 0.000024 -0.454000
v -0.002798 0.013882 -0.514011
v -0.005000 -0.000024 -0.514000
v -0.002798 0.013930 -0.454011
v -0.002798 0.013882 -0.514011
v 0.003594 0.026474 -0.454021
v -0.002798 0.013930 -0.454011
v 0.003594 0.026426 -0.514021
v -0.002798 0.013882 -0.514011
v 0.003594 0.026474 -0.454021
v 0.003594 0.026426 -0.514021
v 0.013550 0.036430 -0.454029
v 0.003594 0.026474 -0.454021
v 0.013550 0.036382 -0.514029
v 0.003594 0.026426 -0.514021
v 0.013550 0.036430 -0.454029
v 0.003594 0.026426 -0.514021
v 0.013550 0.036382 -0.514029
v 0.026094 0.042821 -0.454034
v 0.013550 0.036430 -0.454029
v 0.013550 0.036430 -0.454029
v 0.026094 0.042774 -0.514034
v 0.013550 0.036382 -0.514029
v 0.026094 0.042821 -0.454034
v 0.013550 0.036382 -0.514029
v 0.026094 0.042774 -0.514034
v 0.040000 0.045024 -0.454036
v 0.026094 0.042821 -0.454034
v 0.026094 0.042821 -0.454034
v 0.040000 0.044976 -0.514036
v 0.026094 0.042774 -0.514034
v 0.040000 0.045024 -0.454036
v 0.026094 0.042774 -0.514034
v 0.040000 0.044976 -0.514036
v 0.053906 0.042821 -0.454034
v 0.040000 0.045024 -0.454036
v 0.040000 0.045024 -0.454036
v 0.053906 0.042774 -0.514034
v 0.040000 0.044976 -0.514036
v 0.053906 0.042821 -0.454034
v 0.040000 0.044976 -0.514036
v 0.053906 0.042774 -0.514034
v 0.066450 0.036430 -0.454029
v 0.053906 0.042821 -0.454034
v 0.053906 0.042821 -0.454034
v 0.066450 0.036382 -0.514029
v 0.053906 0.042774 -0.514034
v 0.066450 0.036430 -0.454029
v 0.053906 0.042774 -0.514034
v 0.066450 0.036382 -0.514029
v 0.076406 0.026474 -0.454021
v 0.066450 0.036430 -0.454029
v 0.066450 0.036430 -0.454029
v 0.076406 0.026426 -0.514021
v 0.066450 0.036382 -0.514029
v 0.076406 0.026474 -0.454021
v 0.066450 0.036382 -0.514029
v 0.076406 0.026426 -0.514021
v 0.082797 0.013930 -0.454011
v 0.076406 0.026474 -0.454021
v 0.082797 0.013882 -0.514011
v 0.076406 0.026426 -0.514021
v 0.082797 0.013930 -0.454011
v 0.076406 0.026426 -0.514021
v 0.082797 0.013882 -0.514011
v 0.082797 0.013930 -0.454011
v 0.085000 -0.000024 -0.514000
v 0.082797 0.013882 -0.514011
v 0.085000 0.000024 -0.454000
vn -0.0000 0.0008 1.0000
vn 0.9877 -0.1564 0.0001
vn -0.0000 -0.0008 -1.0000
vn 0.8910 -0.4540 0.0004
vn 0.7071 -0.7071 0.0006
vn 0.4540 -0.8910 0.0007
vn 0.1564 -0.9877 0.0008
vn -0.1564 -0.9877 0.0008
vn -0.4540 -0.8910 0.0007
vn -0.7071 -0.7071 0.0006
vn -0.8910 -0.4540 0.0004
vn -0.9877 -0.1564 0.0001
vn -0.9877 0.1564 -0.0001
vn -0.8910 0.4540 -0.0004
vn -0.7071 0.7071 -0.0006
vn -0.4540 0.8910 -0.0007
vn -0.1564 0.9877 -0.0008
vn 0.1564 0.9877 -0.0008
vn 0.4540 0.8910 -0.0007
vn 0.7071 0.7071 -0.0006
vn 0.8910 0.4540 -0.0004
vn 0.9877 0.1564 -0.0001
s 0
usemtl blinn20.002
f 1//1 2//1 3//1
f 4//2 5//2 6//2
f 4//2 7//2 5//2
f 8//3 9//3 10//3
f 1//1 11//1 2//1
f 12//4 13//4 14//4
f 12//4 15//4 13//4
f 8//3 10//3 16//3
f 1//1 17//1 11//1
f 18//5 19//5 20//5
f 18//5 21//5 19//5
f 22//3 23//3 24//3
f 1//1 25//1 26//1
f 27//6 28//6 29//6
f 27//6 30//6 28//6
f 8//3 31//3 32//3
f 33//1 34//1 35//1
f 36//7 37//7 38//7
f 36//7 39//7 37//7
f 40//3 41//3 42//3
f 43//1 44//1 45//1
f 46//8 47//8 48//8
f 46//8 49//8 47//8
f 50//3 51//3 52//3
f 1//1 53//1 54//1
f 55//9 56//9 57//9
f 55//9 58//9 56//9
f 8//3 59//3 60//3
f 1//1 61//1 62//1
f 63//10 64//10 65//10
f 63//10 66//10 64//10
f 67//3 68//3 69//3
f 1//1 70//1 61//1
f 71//11 72//11 73//11
f 71//11 74//11 72//11
f 8//3 75//3 76//3
f 1//1 77//1 70//1
f 78//12 79//12 80//12
f 78//12 81//12 79//12
f 8//3 76//3 82//3
f 1//1 83//1 77//1
f 84//13 85//13 86//13
f 84//13 87//13 85//13
f 8//3 82//3 88//3
f 1//1 89//1 83//1
f 90//14 91//14 92//14
f 90//14 93//14 91//14
f 8//3 88//3 94//3
f 1//1 95//1 89//1
f 96//15 97//15 98//15
f 96//15 99//15 97//15
f 22//3 100//3 101//3
f 1//1 102//1 103//1
f 104//16 105//16 106//16
f 104//16 107//16 105//16
f 8//3 108//3 109//3
f 33//1 110//1 111//1
f 112//17 113//17 114//17
f 112//17 115//17 113//17
f 40//3 116//3 117//3
f 43//1 118//1 119//1
f 120//18 121//18 122//18
f 120//18 123//18 121//18
f 50//3 124//3 125//3
f 1//1 126//1 127//1
f 128//19 129//19 130//19
f 128//19 131//19 129//19
f 8//3 132//3 133//3
f 1//1 134//1 135//1
f 136//20 137//20 138//20
f 136//20 139//20 137//20
f 67//3 140//3 141//3
f 1//1 142//1 134//1
f 143//21 144//21 145//21
f 143//21 146//21 144//21
f 8//3 147//3 148//3
f 1//1 3//1 142//1
f 149//22 150//22 151//22
f 149//22 152//22 150//22
f 8//3 148//3 9//3
